<?xml version="1.0" standalone="no"?>
<!DOCTYPE svg PUBLIC "-//W3C//DTD SVG 20010904//EN"
 "http://www.w3.org/TR/2001/REC-SVG-20010904/DTD/svg10.dtd">
<svg version="1.0" xmlns="http://www.w3.org/2000/svg"
 width="1216.000000pt" height="1216.000000pt" viewBox="0 0 1216.000000 1216.000000"
 preserveAspectRatio="xMidYMid meet">
<metadata>
Created by potrace 1.14, written by Peter Selinger 2001-2017
</metadata>
<g transform="translate(0.000000,1216.000000) scale(0.100000,-0.100000)"
fill="#000000" stroke="none">
<path d="M6960 9792 c-19 -2 -42 -10 -50 -18 -26 -22 -168 -33 -528 -39 -231
-3 -234 -4 -325 -35 -51 -17 -101 -36 -112 -40 -11 -5 -78 -30 -150 -55 -71
-25 -149 -53 -171 -61 -23 -8 -59 -17 -80 -19 -22 -2 -41 -5 -44 -5 -3 -1 -26
-2 -53 -2 -45 1 -47 0 -36 -21 6 -12 18 -30 27 -39 22 -26 -2 -23 -40 3 -24
18 -34 20 -54 10 -13 -6 -24 -15 -24 -21 0 -5 -6 -10 -14 -10 -8 0 -16 -5 -18
-12 -2 -6 -24 -13 -49 -13 -27 -2 -75 -17 -123 -39 -50 -23 -88 -35 -102 -32
-16 4 -35 -6 -75 -41 -30 -27 -56 -50 -59 -53 -3 -3 -30 -21 -60 -40 -30 -19
-57 -37 -60 -40 -7 -7 -75 -43 -195 -102 -204 -101 -244 -122 -241 -126 2 -2
0 -17 -4 -33 -5 -18 -5 -29 1 -29 6 0 7 -6 3 -12 -8 -12 -7 -58 1 -100 6 -28
-2 -22 -32 24 -16 24 -31 47 -35 52 -6 9 -67 -35 -124 -89 -12 -11 -50 -42
-85 -70 -35 -27 -71 -57 -80 -65 -9 -8 -33 -29 -55 -47 -21 -17 -50 -41 -64
-53 -14 -12 -37 -29 -52 -38 -16 -9 -28 -19 -28 -23 0 -4 -15 -17 -32 -28
-156 -101 -214 -148 -238 -194 -14 -26 -57 -83 -97 -127 l-71 -79 19 -63 c22
-72 23 -88 8 -88 -6 0 -17 -7 -25 -15 -9 -8 -21 -15 -28 -15 -10 0 -9 15 6 68
10 37 17 73 16 79 -2 7 -28 -10 -58 -38 -30 -28 -65 -57 -78 -66 -21 -14 -31
-43 -14 -43 4 0 12 -11 19 -25 11 -25 10 -26 -25 -25 -85 1 -89 0 -90 -17 -1
-10 -2 -76 -3 -148 0 -126 -1 -129 -17 -100 -9 17 -15 33 -14 38 1 4 -2 7 -7
7 -5 0 -15 13 -23 29 l-14 29 -57 -24 -58 -23 -18 42 c-10 23 -21 52 -25 64
-6 19 -10 21 -32 11 -13 -6 -24 -15 -24 -20 0 -23 -20 -3 -30 30 -6 20 -15 46
-20 57 -5 11 -10 29 -12 40 -2 12 -20 28 -43 40 -22 11 -42 22 -45 25 -3 3
-16 11 -30 18 -14 7 -38 20 -55 30 -16 10 -64 37 -106 60 l-77 42 -33 -32
c-19 -17 -47 -43 -63 -57 l-29 -26 23 35 c13 19 27 37 30 40 3 3 13 17 22 31
17 26 16 27 -30 69 -53 48 -101 72 -152 77 -93 9 -97 10 -94 47 4 41 -13 58
-76 79 -79 27 -255 109 -680 315 -96 46 -191 86 -210 88 -34 3 -292 13 -480
19 -52 1 -99 4 -105 6 -14 4 -55 -11 -55 -20 0 -4 -45 -53 -100 -110 l-101
-103 5 -44 c9 -74 27 -177 32 -186 8 -12 -3 -10 -36 7 l-30 16 -1 -38 c-2 -49
-2 -39 5 -108 8 -71 31 -226 42 -275 5 -23 7 -21 35 24 17 26 32 46 34 45 2
-2 14 -34 28 -70 l25 -66 -44 -43 c-28 -27 -41 -47 -35 -54 5 -6 12 -22 16
-35 4 -13 14 -40 23 -60 9 -20 16 -38 17 -41 3 -10 18 -45 35 -85 41 -95 51
-124 71 -200 11 -44 22 -84 23 -90 3 -12 23 -62 35 -90 5 -11 17 -38 26 -60
30 -70 140 -285 158 -309 4 -6 22 -33 39 -61 18 -27 57 -74 87 -103 51 -47 56
-57 57 -96 2 -52 32 -119 75 -167 40 -44 89 -115 89 -128 0 -17 22 -25 67 -22
l43 2 -27 -73 c-14 -40 -31 -79 -36 -86 -8 -9 3 -26 41 -64 52 -51 72 -92 69
-137 -2 -19 -17 -33 -62 -60 -73 -42 -79 -48 -99 -96 -18 -41 -67 -103 -160
-199 -68 -71 -79 -83 -154 -176 -79 -96 -79 -96 -99 -127 -10 -15 -28 -38 -40
-51 -28 -28 -27 -24 -3 -52 11 -13 18 -26 15 -29 -4 -3 -9 -1 -13 4 -12 17
-52 36 -62 30 -15 -9 -59 -110 -70 -162 -6 -25 -11 -88 -12 -139 0 -63 -4 -94
-12 -94 -6 0 -30 9 -53 20 -24 10 -45 15 -48 10 -13 -21 -95 -215 -95 -225 0
-5 20 -23 45 -40 24 -16 45 -33 45 -36 0 -4 -28 -6 -62 -5 -69 3 -98 -2 -98
-15 0 -4 -5 -20 -12 -36 -26 -64 -40 -195 -24 -222 4 -7 18 -11 29 -10 37 2
39 0 18 -30 -25 -34 -65 -62 -93 -64 -50 -4 -87 -231 -45 -273 4 -4 7 -13 7
-20 0 -48 96 -201 189 -302 l65 -70 47 18 c26 11 49 17 52 14 3 -3 3 -19 0
-36 -2 -17 -2 -41 1 -54 l6 -23 58 31 c31 17 61 35 67 39 17 16 30 9 53 -26
19 -30 27 -34 50 -30 15 2 62 7 105 11 43 3 85 7 92 8 21 3 42 25 60 61 17 38
32 46 32 18 0 -65 9 -72 60 -45 10 6 23 10 28 10 32 1 77 15 69 20 -8 6 -34
56 -34 66 0 2 19 0 43 -4 38 -5 227 -4 296 3 19 2 27 11 37 46 7 24 13 47 12
50 -1 17 16 51 26 51 6 0 35 -7 64 -14 28 -8 52 -11 52 -8 0 4 4 2 8 -5 5 -9
25 5 62 43 62 63 131 114 155 114 19 0 79 24 97 39 114 95 129 104 162 95 26
-6 81 21 118 58 17 17 17 20 -1 78 -10 33 -18 60 -16 60 2 0 22 -29 44 -65 48
-75 41 -77 114 30 l47 70 68 -1 c37 0 72 1 78 3 6 2 10 20 9 38 -1 19 1 35 4
36 3 1 29 2 56 4 28 1 53 3 56 4 4 0 6 19 5 41 0 22 2 40 6 40 4 0 18 -18 30
-40 13 -22 26 -40 29 -40 4 0 34 26 67 58 130 125 252 222 278 222 7 0 14 4
14 8 0 5 11 15 25 22 13 7 27 26 30 42 7 30 36 48 65 41 12 -3 16 -16 15 -54
-1 -60 3 -67 35 -65 40 3 81 -14 79 -33 -2 -17 5 -55 21 -106 5 -16 12 -52 16
-80 9 -75 9 -75 86 -41 l37 16 40 -51 c23 -29 41 -55 41 -58 0 -4 -21 -13 -46
-20 l-46 -14 54 -55 c144 -148 197 -191 242 -196 37 -4 41 -11 41 -69 l0 -52
42 1 41 0 -21 -39 c-16 -29 -19 -41 -9 -44 7 -3 20 -12 29 -21 9 -10 17 -15
17 -12 1 2 21 -9 46 -26 56 -39 103 -63 128 -67 35 -5 49 -25 47 -67 -2 -37 2
-42 52 -80 30 -22 58 -40 63 -40 4 0 10 -4 12 -8 2 -4 25 -23 52 -42 28 -19
57 -42 66 -50 9 -8 27 -22 39 -30 13 -8 31 -22 41 -30 11 -8 47 -37 81 -65 60
-48 76 -63 116 -112 10 -12 34 -25 53 -28 19 -3 39 -10 46 -15 6 -6 13 -7 16
-5 3 3 12 -5 21 -18 31 -48 287 -195 395 -227 23 -7 42 -17 42 -22 0 -4 9 -8
19 -8 11 0 21 -3 23 -7 2 -5 40 -27 85 -51 l83 -43 -1 59 c-1 48 -4 59 -18 59
-32 0 -41 3 -41 14 0 16 79 8 120 -12 34 -17 35 -19 34 -73 0 -31 2 -56 5 -56
4 0 14 9 24 20 17 20 18 20 47 3 17 -9 30 -20 30 -24 0 -19 69 -31 255 -44 28
-2 77 -6 110 -9 271 -26 327 -28 650 -28 288 0 334 2 428 18 44 7 54 8 152 19
33 3 71 8 85 10 29 5 252 16 389 20 70 2 98 6 113 19 37 32 121 72 173 82 6 1
46 9 90 19 44 9 94 18 110 20 17 2 39 15 50 28 11 13 35 41 53 63 l34 39 -26
-48 -26 -47 30 5 c16 3 65 16 107 29 43 14 98 30 123 37 25 7 47 13 50 14 3 1
19 5 35 10 57 16 133 54 143 71 5 10 18 19 28 21 17 3 140 13 202 16 12 1 22
4 22 7 0 7 -38 40 -46 40 -13 0 -74 56 -74 68 0 18 63 44 72 29 4 -6 2 -19 -3
-28 -12 -23 3 -32 55 -34 132 -5 561 195 587 274 3 8 20 5 57 -8 60 -22 63
-17 31 48 -11 24 -18 45 -15 49 3 3 27 -13 53 -35 68 -56 67 -56 99 -25 138
129 238 207 255 197 6 -4 31 11 57 32 62 52 89 63 155 66 45 2 47 10 7 27 -16
7 -30 16 -30 20 0 4 -12 11 -27 15 -26 7 -26 8 -8 15 11 5 41 9 66 9 50 1 59
10 59 58 0 24 2 25 18 12 9 -8 27 -20 40 -27 21 -11 22 -10 22 16 0 47 49 130
123 212 18 19 42 48 54 63 l22 29 -25 39 c-27 43 -22 49 16 19 33 -26 46 -25
65 4 21 32 64 49 131 50 30 1 54 4 54 9 0 4 -7 23 -15 43 -27 65 -24 69 57 68
l73 0 49 48 c30 29 58 48 72 48 30 0 138 138 122 157 -6 7 -8 13 -5 13 3 0 -1
16 -9 35 -7 19 -14 39 -14 45 0 9 40 -5 93 -31 15 -8 17 -4 17 32 0 24 9 59
23 83 22 42 25 45 55 83 9 12 28 36 42 53 14 18 34 42 45 54 25 27 54 70 79
119 10 22 51 73 91 115 l71 75 -18 66 c-10 36 -18 70 -18 76 0 7 26 10 67 9
37 -1 71 0 76 3 4 2 -2 18 -14 35 -18 24 -19 32 -8 38 7 5 16 7 20 4 16 -9 75
94 143 248 24 56 24 59 9 105 -9 27 -20 53 -24 59 -5 6 18 32 63 68 l71 58
-31 -57 c-32 -58 -28 -58 36 1 38 35 41 25 -30 107 -15 18 -28 35 -28 38 0 7
39 22 52 20 3 0 11 6 18 14 9 11 1 13 -50 14 -33 0 -59 -3 -57 -7 9 -16 -31
-67 -67 -85 -28 -15 -43 -18 -55 -10 -15 10 -43 54 -37 60 1 2 23 -1 48 -5
l46 -9 -5 31 c-2 17 -8 48 -13 69 -6 28 -5 37 3 33 7 -3 30 -10 52 -17 22 -7
43 -17 46 -22 3 -4 16 18 27 51 26 70 27 79 7 62 -8 -7 -15 -9 -15 -6 0 4 -8
0 -17 -10 -16 -15 -17 -15 -23 2 -10 26 -2 48 22 63 16 10 22 10 28 1 4 -7 10
-8 13 -3 10 17 -62 155 -99 190 -36 33 -39 42 -50 123 -9 71 -47 126 -207 294
-45 49 -47 53 -41 96 3 25 8 54 10 65 4 16 -13 38 -75 94 -54 48 -81 80 -81
94 1 79 -23 164 -73 266 -27 54 -38 65 -69 76 -21 7 -38 11 -38 9 0 -3 -13 2
-29 11 -19 9 -34 28 -41 52 -20 64 -67 127 -153 209 -87 84 -127 133 -127 159
0 8 -24 38 -54 67 l-55 52 22 30 21 29 -30 -7 c-16 -4 -41 -13 -56 -21 -27
-13 -28 -13 -38 26 -5 21 -15 58 -21 81 -6 24 -13 51 -15 62 -5 28 -12 31 -32
13 -10 -10 -22 -17 -27 -17 -5 0 -55 46 -110 103 -137 138 -177 173 -224 198
-23 11 -42 24 -42 28 -1 3 -3 20 -5 36 -6 50 -10 65 -20 73 -5 5 -54 28 -109
53 -55 24 -103 48 -106 52 -3 5 -9 8 -13 7 -10 -1 -169 80 -186 96 -12 12 -12
14 1 14 8 0 24 -7 35 -15 36 -27 43 -18 25 33 -16 44 -20 48 -66 59 -28 7 -62
19 -76 27 -14 9 -28 14 -30 12 -2 -2 -58 32 -124 75 -128 84 -230 140 -239
131 -4 -3 -6 0 -6 6 0 7 -9 12 -20 12 -17 0 -33 5 -95 31 -11 4 -37 15 -58 23
-58 23 -241 110 -247 117 -3 3 -38 21 -79 39 -82 38 -75 39 -122 -31 -9 -13
-20 -21 -24 -17 -4 4 -2 14 4 22 17 20 10 97 -10 109 -13 8 -26 2 -60 -24 -24
-19 -48 -38 -52 -44 -4 -6 -7 1 -6 15 1 14 1 35 0 48 l-1 24 -35 -22 c-40 -25
-48 -22 -65 20 -15 35 -19 36 -88 11 l-53 -19 3 34 c2 32 -16 59 -32 49 -3 -2
-44 -6 -91 -10 -46 -3 -99 -8 -116 -9 -35 -4 -41 4 -20 26 25 28 19 38 -20 33
-59 -8 -308 -4 -308 4 0 1 -25 4 -55 6 -30 3 -66 7 -80 10 -24 5 -45 8 -155
21 -87 10 -273 23 -419 30 -54 2 -101 5 -105 7 -3 1 -22 1 -41 -1z m-841 -211
c-22 -33 -35 -25 -36 24 l-2 45 26 -24 c22 -21 23 -26 12 -45z m2277 -152 c10
-17 -13 -36 -27 -22 -12 12 -4 33 11 33 5 0 12 -5 16 -11z m-1680 -40 c8 -14
-11 -33 -25 -25 -11 7 -4 36 9 36 5 0 12 -5 16 -11z m764 -15 c0 -17 -26 -19
-36 -3 -7 12 15 31 28 23 4 -3 8 -12 8 -20z m668 12 c12 -7 11 -60 -1 -72 -5
-6 -67 67 -67 77 0 10 51 6 68 -5z m799 -93 l-28 -28 2 53 2 53 26 -25 26 -26
-28 -27z m-3664 41 c-3 -8 -11 -14 -18 -14 -17 0 -27 28 -12 33 20 7 36 -4 30
-19z m188 -43 c-17 -30 -40 -44 -84 -48 -49 -5 -47 -3 24 41 57 34 75 37 60 7z
m2845 18 c3 -6 1 -16 -5 -22 -9 -9 -14 -8 -21 3 -9 15 -4 30 10 30 5 0 12 -5
16 -11z m364 -9 c0 -5 -5 -12 -11 -16 -14 -8 -33 11 -25 25 7 11 36 4 36 -9z
m-1875 -51 c-9 -14 -32 -11 -38 5 -3 8 -3 17 0 20 9 9 44 -14 38 -25z m511 20
c3 -6 1 -16 -5 -22 -9 -9 -14 -8 -21 3 -9 15 -4 30 10 30 5 0 12 -5 16 -11z
m840 -21 c-21 -12 -42 4 -32 21 5 8 13 8 28 0 20 -11 20 -12 4 -21z m-558 -17
c10 -6 10 -11 -3 -21 -14 -12 -18 -11 -25 0 -15 24 2 38 28 21z m1559 -6 c7
-20 -2 -29 -21 -22 -9 4 -13 13 -10 22 8 19 23 19 31 0z m163 -5 c0 -5 -5 -12
-11 -16 -14 -8 -33 11 -25 25 7 11 36 4 36 -9z m-1082 -43 c2 -10 -3 -17 -11
-17 -16 0 -30 24 -19 34 10 10 27 1 30 -17z m-3518 -114 c-27 -39 -37 -34 -35
15 1 26 3 48 4 49 0 1 11 -8 24 -20 21 -20 21 -24 7 -44z m3560 -9 c0 -17 -26
-19 -36 -3 -7 12 15 31 28 23 4 -3 8 -12 8 -20z m-2641 -28 c9 -11 8 -15 -5
-20 -21 -8 -34 1 -27 19 7 19 17 19 32 1z m2958 -1 c7 -20 -2 -29 -21 -22 -9
4 -13 13 -10 22 8 19 23 19 31 0z m-1037 -51 c0 -17 -26 -19 -36 -3 -7 12 15
31 28 23 4 -3 8 -12 8 -20z m1236 15 c3 -6 1 -16 -5 -22 -9 -9 -14 -8 -21 3
-9 15 -4 30 10 30 5 0 12 -5 16 -11z m358 -165 c9 -24 -3 -36 -20 -19 -9 8
-12 19 -9 25 9 15 22 12 29 -6z m406 -10 c0 -16 -26 -19 -35 -4 -3 6 -4 14 0
20 8 13 35 1 35 -16z m-366 -70 c8 -20 8 -24 -1 -24 -17 0 -35 19 -29 29 10
16 23 14 30 -5z m322 -7 c1 -9 -4 -17 -11 -17 -17 0 -28 17 -20 31 9 14 28 6
31 -14z m178 13 c41 -15 31 -54 -25 -98 -14 -11 -19 -7 -38 33 -11 24 -21 51
-21 58 0 16 50 20 84 7z m502 -41 c10 -17 -13 -36 -27 -22 -12 12 -4 33 11 33
5 0 12 -5 16 -11z m-9227 -48 c22 -19 37 -61 21 -61 -14 0 -61 61 -54 71 7 12
8 12 33 -10z m3069 -38 c17 -30 -6 -63 -45 -63 -18 0 -33 2 -33 3 0 2 11 17
25 33 14 16 25 32 25 37 0 13 19 7 28 -10z m2122 -49 c0 -18 -26 -18 -33 0 -3
8 -3 16 0 19 9 10 33 -5 33 -19z m876 -25 c3 -6 1 -16 -5 -22 -9 -9 -14 -8
-21 3 -9 15 -4 30 10 30 5 0 12 -5 16 -11z m440 -3 c16 -17 4 -29 -20 -20 -17
7 -20 16 -9 27 9 10 13 9 29 -7z m1799 -86 c-27 -30 -35 -25 -35 25 l0 46 27
-25 c26 -25 26 -26 8 -46z m-8041 7 c15 -11 16 -17 6 -39 -7 -14 -20 -29 -29
-32 -9 -3 -30 -12 -47 -20 l-32 -14 11 35 c11 34 49 83 65 83 4 0 16 -6 26
-13z m-582 -60 c2 -7 -6 -23 -19 -36 -13 -13 -23 -20 -24 -15 0 5 -1 28 -3 50
-2 41 -2 42 20 27 12 -8 24 -20 26 -26z m5545 12 c-19 -31 -39 -32 -66 -3
l-25 27 32 -6 c18 -4 32 -3 32 2 0 5 9 7 19 4 17 -4 18 -8 8 -24z m-2353 -28
c3 -5 -1 -15 -10 -22 -13 -10 -17 -10 -24 1 -6 9 -4 17 3 22 16 10 25 10 31
-1z m-2274 -116 c0 -1 -9 -12 -19 -24 -17 -19 -22 -21 -40 -9 -29 18 -26 36 7
40 24 3 52 0 52 -7z m9030 -135 c0 -5 -5 -12 -11 -16 -14 -8 -33 11 -25 25 7
11 36 4 36 -9z m114 -36 c8 -22 8 -24 -8 -24 -18 0 -29 16 -21 30 9 15 22 12
29 -6z m-4715 -78 c9 -11 8 -15 -5 -20 -21 -8 -34 1 -27 19 7 19 17 19 32 1z
m1077 -77 c3 -6 1 -16 -5 -22 -9 -9 -14 -8 -21 3 -9 15 -4 30 10 30 5 0 12 -5
16 -11z m-4637 -42 c12 -15 5 -27 -16 -27 -7 0 -13 9 -13 20 0 23 13 26 29 7z
m-796 -41 c3 -8 -1 -17 -9 -20 -23 -9 -24 -8 -24 14 0 23 25 27 33 6z m1040
-72 c9 -10 -4 -34 -19 -34 -8 0 -14 6 -14 13 0 22 19 35 33 21z m-2158 -174
c0 -7 -8 -14 -17 -16 -18 -2 -24 16 -11 30 10 10 28 1 28 -14z m7353 -3 c4
-19 -6 -21 -27 -8 -16 10 -5 34 12 28 7 -2 13 -11 15 -20z m-3610 -26 c12 -10
22 -22 22 -26 0 -11 -40 -59 -41 -49 -2 14 -5 94 -3 94 0 0 11 -8 22 -19z
m-1109 -5 c9 -10 9 -16 1 -21 -13 -8 -42 14 -34 26 8 13 20 11 33 -5z m-2679
-36 c11 -7 12 -12 3 -21 -13 -13 -33 -4 -33 17 0 16 9 18 30 4z m6840 -24 c0
-30 -18 -46 -51 -46 -22 0 -26 4 -22 20 3 11 9 17 14 14 5 -3 9 1 9 8 0 20 20
37 36 31 8 -3 14 -15 14 -27z m3596 -97 c3 -6 2 -15 -2 -19 -12 -12 -38 5 -30
19 9 14 23 14 32 0z m-7313 -243 c3 -8 0 -17 -8 -19 -15 -7 -25 1 -25 20 0 17
26 17 33 -1z m-2515 -116 c-6 -9 -19 -22 -28 -28 -17 -10 -19 4 -11 80 1 5 12
-2 25 -13 20 -17 22 -25 14 -39z m112 0 c11 -7 12 -12 3 -21 -13 -13 -33 -4
-33 17 0 16 9 18 30 4z m7822 -310 c10 -6 24 -10 32 -10 8 0 57 -20 110 -45
84 -39 98 -50 114 -82 9 -21 20 -39 25 -41 4 -2 7 -9 7 -16 0 -19 29 -74 43
-82 7 -4 9 -4 5 1 -4 4 -1 17 7 29 8 11 15 29 15 40 0 11 3 16 7 12 4 -4 8
-42 9 -86 2 -81 11 -107 50 -149 13 -14 24 -31 24 -38 0 -6 4 -13 8 -15 17 -6
91 -124 96 -153 5 -27 17 -138 20 -180 1 -20 -2 -21 -58 -24 -12 -1 -16 -6
-12 -16 3 -8 1 -15 -4 -15 -6 0 -6 -9 -1 -23 5 -13 5 -30 1 -37 -5 -8 -7 -17
-4 -21 6 -10 41 1 55 17 24 29 30 12 7 -18 -36 -48 -50 -77 -55 -117 -3 -20
-7 -38 -9 -40 -2 -2 1 -12 7 -22 5 -11 6 -19 2 -19 -4 0 -29 -19 -54 -42 -25
-24 -90 -84 -145 -135 -54 -50 -102 -94 -106 -98 -4 -4 -22 -9 -40 -11 -81 -9
-119 -28 -182 -93 -33 -33 -41 -38 -52 -26 -8 7 -14 17 -14 22 0 4 -11 22 -24
38 l-24 30 2 -33 c3 -50 -5 -55 -80 -53 -37 1 -70 3 -73 6 -4 2 -26 6 -51 10
-25 4 -47 8 -51 10 -3 2 -20 7 -37 10 -17 3 -102 25 -188 50 -86 25 -159 45
-161 45 -3 0 -3 9 0 19 8 31 -27 76 -95 122 -35 23 -65 43 -67 45 -2 2 4 27
14 56 9 29 19 64 21 78 4 24 3 25 -55 23 -55 -1 -59 1 -64 23 -2 13 -2 26 1
29 3 3 7 67 8 143 2 120 0 142 -18 180 -11 24 -19 44 -17 46 43 30 89 70 89
78 0 6 -6 6 -15 -2 -8 -7 -21 -10 -30 -7 -13 5 -13 11 0 47 35 100 76 162 128
195 9 6 18 27 22 49 7 48 33 85 109 157 l59 57 33 -20 c37 -22 38 -21 25 35
-5 20 -5 39 0 42 4 3 50 8 101 11 106 6 183 12 183 14 0 0 22 3 49 5 27 3 54
9 60 14 6 5 25 11 41 13 36 4 173 -18 197 -32z m-7338 -8 c8 -13 -11 -35 -23
-28 -16 10 -14 36 3 36 8 0 17 -4 20 -8z m10063 -96 c-27 -26 -42 -17 -26 16
6 10 5 19 -1 23 -5 3 -6 13 -3 21 5 13 10 12 31 -9 l25 -25 -26 -26z m-3636
-209 c-17 -17 -34 12 -19 31 10 11 13 10 21 -3 6 -11 5 -21 -2 -28z m3242 -62
c8 -18 -11 -31 -25 -17 -11 11 -3 32 12 32 4 0 10 -7 13 -15z m516 6 c17 -11
6 -24 -44 -57 -26 -17 -28 -17 -22 -1 3 9 2 17 -3 17 -11 0 -1 32 14 42 15 10
38 10 55 -1z m-9657 -50 c9 -10 19 -29 23 -41 6 -19 5 -21 -14 -11 -25 14 -52
51 -45 63 8 13 18 10 36 -11z m9103 -32 c4 -5 -4 -19 -17 -29 -12 -11 -28 -24
-34 -29 -18 -15 -25 -1 -12 23 11 21 37 45 50 46 4 0 10 -5 13 -11z m480 -39
c10 -35 -10 -69 -41 -70 -12 0 -74 59 -74 70 0 21 109 21 115 0z m-10192 -97
c-3 -7 -9 -13 -13 -13 -14 0 -22 20 -16 36 5 12 8 13 20 2 7 -7 11 -19 9 -25z
m4875 -76 c2 -10 -3 -17 -11 -17 -16 0 -30 24 -19 34 10 10 27 1 30 -17z
m5316 -25 c8 -13 -11 -35 -23 -28 -16 10 -14 36 3 36 8 0 17 -4 20 -8z m-4880
-62 c-14 -14 -36 4 -28 24 6 16 8 16 22 2 11 -10 13 -19 6 -26z m4162 -181 c3
-6 2 -15 -2 -19 -12 -12 -38 5 -30 19 9 14 23 14 32 0z m440 0 c7 -12 -15 -31
-28 -23 -4 3 -8 12 -8 20 0 17 26 19 36 3z m-8318 -38 c10 -6 10 -11 -3 -21
-14 -12 -18 -11 -25 0 -15 24 2 38 28 21z m-2031 -242 c-7 -11 -15 -19 -19
-19 -5 0 -11 0 -15 0 -5 0 -8 46 -4 77 1 3 12 -4 25 -16 21 -20 23 -26 13 -42z
m-42 -120 c-5 -52 -29 -99 -50 -99 -19 0 -105 84 -105 103 0 22 14 28 74 36
93 12 86 15 81 -40z m10231 -80 c7 -12 -15 -31 -28 -23 -4 3 -8 12 -8 20 0 17
26 19 36 3z m-10473 -135 c-3 -8 -9 -14 -13 -14 -14 0 -21 17 -14 34 5 12 10
14 20 6 7 -7 10 -18 7 -26z m9793 3 c1 -9 -4 -17 -11 -17 -17 0 -28 17 -20 31
9 14 28 6 31 -14z m-9797 -117 c-13 -10 -26 -19 -29 -20 -5 0 -5 24 -1 79 1 9
10 5 27 -13 l26 -26 -23 -20z m9917 42 c-2 -9 -6 -16 -10 -15 -23 6 -26 10
-21 25 8 21 34 12 31 -10z m-3436 -29 c0 -5 -5 -15 -10 -23 -9 -13 -11 -13
-19 0 -5 8 -7 18 -5 22 6 10 34 11 34 1z m3276 -4 c3 -6 2 -15 -2 -19 -12 -12
-38 5 -30 19 9 14 23 14 32 0z m80 0 c7 -12 -15 -31 -28 -23 -4 3 -8 12 -8 20
0 17 26 19 36 3z m-48 -130 l-23 -21 -5 24 c-4 13 -4 34 -2 46 l5 24 24 -27
25 -26 -24 -20z m-7785 54 c8 -7 -11 -33 -24 -33 -5 0 -9 9 -9 20 0 19 20 27
33 13z m6551 -63 c-14 -14 -36 4 -28 24 6 16 8 16 22 2 11 -10 13 -19 6 -26z
m-6916 -41 c-18 -11 -32 6 -24 28 7 17 8 17 22 -1 11 -16 11 -21 2 -27z m552
-198 c-30 -55 -34 -56 -65 -7 -19 31 -32 43 -39 36 -5 -5 -20 -10 -33 -10 -13
0 -23 -4 -23 -8 0 -4 -18 -13 -40 -19 l-40 -10 37 46 c71 89 56 85 139 34 59
-37 72 -49 64 -62z m-2146 61 c2 -4 1 -14 -4 -22 -7 -11 -12 -12 -21 -3 -6 6
-8 16 -5 22 8 13 23 14 30 3z m9550 0 c8 -13 -11 -35 -23 -28 -16 10 -14 36 3
36 8 0 17 -4 20 -8z m-1760 -62 c-14 -14 -36 4 -28 24 6 16 8 16 22 2 11 -10
13 -19 6 -26z m-7875 -37 c-15 -18 -34 -1 -25 22 5 14 9 15 21 5 12 -10 13
-16 4 -27z m2084 -67 c3 -8 0 -17 -8 -19 -15 -7 -25 1 -25 20 0 17 26 17 33
-1z m120 7 c9 -9 -13 -34 -24 -27 -14 8 -11 34 4 34 8 0 17 -3 20 -7z m5757 0
c-1 -19 -16 -31 -29 -24 -7 5 -10 14 -7 20 8 12 36 15 36 4z m-6594 -44 c10
-16 -18 -30 -34 -17 -11 9 -11 13 0 19 18 12 26 11 34 -2z m-1562 -37 c6 -10
-5 -26 -21 -29 -7 -2 -13 6 -13 17 0 19 24 28 34 12z m7269 -63 c-4 -4 -14 -4
-22 1 -13 7 -13 11 -1 25 12 15 14 15 23 0 5 -10 5 -21 0 -26z m2883 13 c-2
-9 -6 -16 -10 -15 -23 6 -26 10 -21 25 8 21 34 12 31 -10z m-7953 -2 c-6 -24
-16 -25 -32 -6 -9 11 -9 15 1 19 27 11 36 7 31 -13z m954 12 c17 -11 0 -34
-20 -27 -9 4 -13 13 -10 21 6 16 13 17 30 6z m-3383 -76 c-6 -17 -44 -38 -45
-26 0 5 -1 24 -1 40 0 17 1 33 1 37 1 3 12 -4 25 -16 14 -13 23 -28 20 -35z
m2915 45 c3 -1 -6 -12 -19 -26 l-24 -25 -22 21 c-13 12 -22 25 -19 28 3 5 63
6 84 2z m7822 -23 c6 -10 7 -28 4 -38 -5 -16 -10 -18 -26 -10 -26 15 -53 67
-36 73 20 7 47 -4 58 -25z m-8388 -65 c4 -3 2 -12 -4 -20 -9 -10 -15 -10 -25
-2 -8 6 -11 15 -8 20 6 11 28 12 37 2z m7912 -3 c3 -5 4 -14 0 -20 -8 -13 -35
-1 -35 16 0 16 26 19 35 4z m-7272 -37 c4 -3 2 -12 -4 -20 -9 -10 -15 -10 -25
-2 -8 6 -11 15 -8 20 6 11 28 12 37 2z m2400 0 c11 -10 -13 -32 -28 -27 -8 3
-11 12 -8 20 5 15 25 19 36 7z m-2185 -63 c45 -43 15 -49 -52 -11 -36 20 -43
38 -19 43 22 5 40 -3 71 -32z m-3334 -18 c8 -13 -11 -35 -23 -28 -16 10 -14
36 3 36 8 0 17 -4 20 -8z m3656 -24 c32 -35 26 -49 -19 -41 -31 5 -29 3 -35
35 -8 48 13 51 54 6z m3734 -78 c-14 -14 -36 4 -28 24 6 16 8 16 22 2 11 -10
13 -19 6 -26z m-7110 22 c8 -13 -11 -35 -23 -28 -16 10 -14 36 3 36 8 0 17 -4
20 -8z m3200 -1 c3 -5 -1 -14 -8 -21 -12 -9 -17 -7 -26 9 -9 18 -8 21 9 21 11
0 22 -4 25 -9z m319 2 c11 -10 -13 -32 -28 -27 -8 3 -11 12 -8 20 5 15 25 19
36 7z m-1720 -40 c9 -9 -13 -34 -24 -27 -14 8 -11 34 4 34 8 0 17 -3 20 -7z
m7757 -3 c0 -11 -37 -47 -62 -61 -21 -11 -22 -6 -5 23 21 39 67 65 67 38z
m-9270 -37 c0 -5 -5 -15 -10 -23 -7 -11 -12 -12 -21 -3 -6 6 -8 16 -5 22 8 12
36 15 36 4z m3304 -35 c19 5 19 4 7 -11 -17 -21 -57 -22 -102 -3 l-34 14 40 4
c22 2 46 1 54 -3 8 -4 23 -4 35 -1z m-2070 -6 c6 -10 -5 -26 -21 -29 -7 -2
-13 6 -13 17 0 19 24 28 34 12z m-1325 -99 c-15 -18 -34 -1 -25 22 5 14 9 15
21 5 12 -10 13 -16 4 -27z m9590 -164 c-16 -9 -29 -3 -29 16 0 19 23 25 34 7
5 -9 4 -17 -5 -23z m87 20 c3 -6 0 -15 -7 -20 -13 -7 -28 5 -29 24 0 11 28 8
36 -4z m-286 -139 c-19 -12 -33 2 -24 24 6 16 8 16 23 1 14 -14 14 -17 1 -25z
m-1314 19 c3 -6 1 -16 -5 -22 -9 -9 -14 -8 -21 3 -5 8 -10 18 -10 23 0 11 28
8 36 -4z m-8353 -36 c9 -9 -13 -34 -24 -27 -14 8 -11 34 4 34 8 0 17 -3 20 -7z
m1021 -28 c15 -19 25 -36 22 -36 -51 -12 -76 2 -76 42 0 40 21 37 54 -6z
m2499 -19 c9 -23 -21 -28 -33 -6 -9 17 -7 20 9 20 10 0 21 -6 24 -14z m1192 4
c11 -17 -5 -32 -21 -19 -8 6 -14 15 -14 20 0 12 27 11 35 -1z m4674 -61 c-9
-5 -17 -2 -23 8 -5 10 -4 18 5 24 9 5 17 2 23 -8 5 -10 4 -18 -5 -24z m-9091
1 c17 -16 29 -36 28 -44 -4 -27 -28 -46 -54 -43 -23 3 -25 8 -26 60 -1 66 8
71 52 27z m626 22 c6 -10 -5 -26 -21 -29 -7 -2 -13 6 -13 17 0 19 24 28 34 12z
m-366 -45 l22 -23 -25 -24 c-14 -13 -25 -22 -26 -19 -4 25 -3 89 2 89 3 0 15
-10 27 -23z m-559 -54 c-15 -18 -34 -1 -25 22 5 14 9 15 21 5 12 -10 13 -16 4
-27z m5204 -20 c4 -3 2 -12 -4 -20 -9 -10 -15 -10 -25 -2 -8 6 -11 15 -8 20 6
11 28 12 37 2z m-4673 -32 c-1 -14 -28 -41 -41 -41 -14 0 -51 35 -44 42 6 6
85 5 85 -1z m4110 -21 c0 -18 -3 -19 -20 -10 -22 12 -18 30 6 30 8 0 14 -9 14
-20z m2836 9 c3 -6 2 -15 -2 -19 -12 -12 -38 5 -30 19 9 14 23 14 32 0z
m-3593 -43 c3 -8 0 -17 -8 -20 -15 -5 -39 17 -28 27 11 12 31 8 36 -7z m677
-42 c0 -8 -9 -14 -20 -14 -22 0 -26 10 -8 28 13 13 28 7 28 -14z m-470 -24 c0
-3 -11 -15 -24 -27 l-23 -22 -26 27 -27 28 50 0 c28 0 50 -3 50 -6z m-170 -59
c0 -14 -5 -18 -19 -14 -12 3 -17 11 -14 19 8 21 33 17 33 -5z m3840 0 c0 -14
-5 -18 -20 -14 -21 5 -25 15 -13 26 13 14 33 6 33 -12z m-3640 -35 c0 -18 -13
-27 -25 -18 -18 13 -15 32 5 32 11 0 20 -6 20 -14z m680 -40 c0 -20 -12 -27
-26 -15 -7 6 -10 17 -8 24 7 16 34 8 34 -9z m-526 -32 c13 -5 14 -9 5 -20 -9
-11 -15 -11 -25 -3 -27 22 -14 36 20 23z m3796 -134 c-13 -11 -25 -20 -27 -20
-1 0 -3 23 -3 51 l0 51 26 -32 26 -31 -22 -19z m724 35 c-3 -8 -12 -11 -20 -8
-15 5 -19 25 -7 36 10 11 32 -13 27 -28z m-1641 -46 c-4 -4 -14 -4 -22 1 -13
7 -13 11 -1 25 12 15 14 15 23 0 5 -10 5 -21 0 -26z m-789 -8 c5 0 -3 -12 -18
-26 l-27 -25 -19 22 c-10 13 -16 26 -14 29 3 5 38 5 78 0z m705 -32 c-9 -5
-17 -2 -23 8 -5 10 -4 18 5 24 9 5 17 2 23 -8 5 -10 4 -18 -5 -24z m1280 -40
c-21 -12 -35 7 -19 26 12 15 14 15 23 -1 6 -11 5 -19 -4 -25z m-236 -120 c-4
-4 -14 -4 -22 1 -13 7 -13 11 -1 25 12 15 14 15 23 0 5 -10 5 -21 0 -26z
m-593 -18 c-1 -16 -17 -29 -28 -22 -17 10 -4 41 14 34 8 -3 14 -8 14 -12z
m-1524 -56 c-5 -14 -9 -15 -21 -5 -12 10 -13 16 -4 27 15 18 34 1 25 -22z
m1676 -3 c-19 -6 -27 -3 -27 11 -1 20 19 27 29 10 6 -11 5 -18 -2 -21z m-1712
-107 c0 -18 -27 -27 -33 -11 -6 16 12 38 25 30 4 -3 8 -11 8 -19z m1005 -34
c3 -6 -3 -15 -14 -20 -14 -8 -20 -7 -24 3 -9 24 24 38 38 17z m-1643 -53 c-15
-15 -43 -2 -36 16 5 12 10 13 26 5 14 -8 17 -14 10 -21z"/>
<path d="M9160 6626 c0 -8 4 -17 8 -20 13 -8 35 11 28 23 -10 16 -36 14 -36
-3z"/>
<path d="M8309 5429 c-18 -52 -14 -59 31 -52 14 2 31 4 37 5 24 3 26 39 3 63
-38 41 -54 37 -71 -16z"/>
<path d="M8808 5394 c-11 -10 3 -34 19 -34 8 0 13 7 11 17 -3 18 -20 27 -30
17z"/>
<path d="M11561 7232 c3 -51 15 -75 50 -100 21 -15 22 -15 15 9 -4 13 -9 35
-12 49 -3 13 -9 29 -14 35 -8 10 -10 16 -10 34 0 5 -7 12 -16 15 -13 5 -15 -2
-13 -42z"/>
<path d="M370 4786 c0 -8 4 -17 8 -20 13 -8 35 11 28 23 -10 16 -36 14 -36 -3z"/>
<path d="M1490 3460 c0 -20 19 -23 32 -5 9 12 0 25 -18 25 -8 0 -14 -9 -14
-20z"/>
</g>
</svg>
