<svg xmlns="http://www.w3.org/2000/svg" width="304" height="186" fill="none">
  <path fill="#000" fill-rule="evenodd" d="M172.6.8c-.3.3-4.7.7-9.8.8l-9.2.1-7 2.6C139 7 138.9 7 136.6 7H135l.7 1.2.7 1.1-1.2-.7-1.2-.7-1.5 1.2c-.8.6-1.4.9-1.4.5 0-.3-1.4 0-3 1-1.7.8-3 1.2-3 .8 0-.4-1 .2-2 1.4-1.1 1.2-5 3.6-8.5 5.3l-6.5 3.1-.1 1.2V25l.2 1.5-1-1.4-1-1.4-7 5.9a106 106 0 0 1-9.4 7.1c-1.2.7-2.2 1.6-2.2 2 0 .5-1 1.9-2.1 3.1l-2.1 2.3.4 1.9.5 1.8-1 .6-1 .6.6-2.2.5-2.3-2 1.9-2.2 1.9.5.8.5.9h-3.1l-.1 1.2v6.3l-1-1.7-1-1.7-1.4.5-1.4.6-.7-1.6L71 52l-.8.5-.8.5-.6-2-.7-1.9-4.3-2.4-4.4-2.5-1.8 1.7-1.7 1.6 1.3-1.8 1.4-1.8-1.5-1.5a6.7 6.7 0 0 0-3.7-1.7l-2.1-.1v-1.3c0-.7-.5-1.3-1-1.3s-5.8-2.3-11.8-5.2l-10.7-5.2-8-.3-8.1-.3-2.8 3-2.9 2.9.5 3 .4 3-.8-.5-.8-.5v1.8c0 1 .3 3.5.6 5.6l.7 3.9.8-1.3.8-1.3.7 1.7.7 1.8-1.1 1-1 1.1 1 2.7c.6 1.4 1.4 3.5 2 4.6a56 56 0 0 0 9.8 21l2 1.8v1.6c0 1 .9 2.7 2 3.9a9 9 0 0 1 2 2.9c0 .4.7.7 1.5.6H29l-.8 2.2-1 2.3 1.5 1.2c.8.7 1.5 1.8 1.5 2.5v1.4l-2 1c-1.1.6-2 1.6-2 2.1 0 .6-1.5 2.5-3.3 4.3a81.7 81.7 0 0 0-6 6.8l-2.6 3.6.7.8.7.8-1.2-.7-1.2-.7-1 2c-.6 1-1.1 3.3-1.1 5v3.2l-1.4-.5-1.4-.5-1.3 3-1.2 3 1.4.9 1.4.9H4.4l-.6 1.6c-.3.9-.6 2.4-.6 3.5v2h2L4 144.2c-.7.8-1.6 1.2-2 1-.3-.2-.8.8-1 2.3l-.6 2.6 1 3.1c.6 1.7 2.2 4.4 3.6 5.9l2.6 2.8 1.3-.5 1.3-.5-.1.7v2.3l2-1 2-1.1.5.9.5.9 3.2-.3 3.1-.3.9-1.3.8-1.4v2.3l2-.5 2-.5-.5-1-.5-.8 1.8.2h4.6l2.9-.2.4-1.9.5-1.9 1.9.5 1.8.5 2-2.1c1.2-1.1 2.7-2 3.5-2 .7 0 2.2-1 3.4-2 1.1-1 2.3-1.7 2.6-1.4.3.3 1.3 0 2-.6l1.5-1.2-.5-1.7-.5-1.7 1.2 1.8 1.1 1.9 1.5-2.1 1.5-2h3.9v-2H66v-2.6l.9 1.3.7 1.2 3.6-3.3c1.9-1.8 4.2-3.6 5.1-4 1-.3 1.7-1 1.7-1.6 0-.6.5-1 1-1h1v2.9h1.5c.9 0 1.5.4 1.4.8l.1 1.5c.5 1.3.8 2.7.9 3.8l.1 1.1 1.5-.5 1.4-.6 1 1.4 1.2 1.3-1.2.4-1.3.4 3 3.2c1.8 1.8 3.7 3.2 4.3 3.2H95v3h2.1l-.5.9-.6.9 2.8 1.8c1.5 1 3 1.8 3.5 1.6.4 0 .7.4.7 1.2v1.4l6.5 4.8c3.6 2.6 6.5 5.1 6.5 5.6 0 .4.7.8 1.5.8a3 3 0 0 1 2.2 1.2c.7 1 7.4 4.9 9.3 5.3.3 0 1.9.8 3.6 1.7l3 1.7v-2.9h-1c-.5 0-.7-.2-.4-.5.3-.3 1.2-.3 2.1 0l1.7.7v3.1l.6-.6.7-.7 1 .9 1.2.9 9.5.8c11.3 1 21 1 26.5 0 2.2-.4 7-.8 10.6-1l6.6-.2 1.4-1c.7-.7 3.1-1.5 5.3-1.9l4-.7 1.3-1.6 1.4-1.7-.7 1.3-.7 1.4 1.9-.5 6-1.8c2.4-.7 4.3-1.6 4.3-2 0-.4.6-.7 1.3-.6.7 0 2.1 0 3.2-.2l2-.2-1.8-1.3-1.8-1.4 1-.7 1.1-.6v2h2c2.5 0 12.7-4.5 13.6-6l.6-1 1.4.5 1.3.5-.6-1.7-.7-1.7 1.6 1.3 1.7 1.3 2-1.8c3.5-3.2 5-4.4 5-3.8 0 .4.8 0 1.7-1 .8-.8 2.3-1.5 3.2-1.5h1.7l-1.5-1-1.5-1h1c.5-.2 1.3-.2 1.7-.1.5 0 .8-.4.8-1v-1l1 .6 1 .6V153c0-.7 1.1-2.5 2.5-4.2l2.5-3-.7-1-.6-1 1 .6 1.1.6.7-1c.3-.5 1.5-1 2.6-1h2l-.5-1.5-.6-1.5h3.8l1.6-1.5c.9-1 1.6-1.3 1.6-.8 0 .4.7-.3 1.6-1.5l1.5-2.3-.5-1.4-.5-1.4 1.4.6 1.5.5v-1.4c0-.8 1.3-3 3-4.9 1.6-1.8 3-3.7 3-4.1 0-.4 1-1.7 2-2.9l2.1-2-.5-2-.4-1.9h3.9l-.6-1-.7-1h1c.4 0 1.5-1.7 2.5-3.8l1.7-3.9-.6-1.5-.5-1.4 1.7-1.4 1.7-1.4-.8 1.5-.8 1.5 1.3-1.3 1.3-1.2-1.2-1.4-1.2-1.4 1.3-.6 1.3-.5h-1.8L300 94v.9c0 .4-.7 1.1-1.5 1.4l-1.5.6-.6-1-.6-1 1.3.3 1.4.3-.3-1.8-.3-1.7 1.4.5 1.4.6.6-1.6.6-1.6-1 .6-1 .6v-1c0-.7.5-1.1 1-1.1h.9l-1.2-2.5c-.6-1.4-1.5-2.5-1.9-2.5-.4 0-.7-1-.7-2 0-2-.6-3-4.6-7.3l-2-2.2.3-1.6.3-1.5-2-1.9-2-1.8V64c0-.9-.6-2.8-1.3-4.3l-1.2-2.7-1.7-.6-1.7-.5-.6-2c-.4-1-2-3-3.6-4.3-1.6-1.4-3-2.9-3-3.4s-.6-1.5-1.4-2.2l-1.5-1.2.5-.9.6-.9-1.4.6-1.5.5-.6-2.7-.7-2.6-.6.6-.6.6-4-4c-2.1-2.2-4.3-4-4.8-4s-1-.7-1-1.5v-1.6l-5.4-2.5a24 24 0 0 1-5.5-3c0-.3.5-.2 1.1.2l1.2.7-.5-1.4-.5-1.4-1.9-.3c-1-.2-3.7-1.7-5.9-3.3-2.2-1.5-4.9-3-6-3.2a46 46 0 0 1-7.8-3.2l-5.8-3-1 1.6-1 1.4.5-1.6c.2-1 .2-2-.1-2.3l-.6-.5-1.3 1-1.4 1.2V4.9l-1 .6-.8.6-.6-1-.6-1-1.5.6-1.5.5v-2l-3.4.2-3.5.3.5-.8.5-.8-3.8.2a40 40 0 0 1-7.8-.6c-2.2-.4-7.4-1-11.6-1.2l-7.6-.4-.7.7Zm-19.9 4.9-.6.7V3.7l.6.7.7.6-.7.7ZM210 9.5a.5.5 0 0 1-1 0c0-.2.3-.5.5-.5.3 0 .5.3.5.5Zm-42 1a.5.5 0 0 1-1 0c0-.2.3-.5.6-.5.2 0 .5.3.5.5Zm19 0a.5.5 0 0 1-1 0c0-.2.3-.5.5-.5.3 0 .5.3.5.5Zm17 .5c0 .6-.2 1-.4 1-.3 0-.7-.4-1-1l-.7-1h1c.7 0 1.1.5 1.1 1Zm-72 .5a.5.5 0 0 1-1 0c0-.2.3-.5.6-.5s.5.3.5.5Zm91.7 1.2-.7.7v-2.7l.7.7.7.6-.7.7Zm-87.1.3c-.4.6-1.2 1-1.8 1h-1.2l1.5-1c2-1.2 2.3-1.2 1.5 0Zm71.4-.5c0 .3-.2.5-.5.5a.5.5 0 0 1-.5-.5c0-.2.3-.5.5-.5.3 0 .5.3.5.5Zm9 0c0 .3-.2.5-.5.5a.5.5 0 0 1 0-1c.3 0 .5.3.5.5Zm-47 1c0 .3-.2.5-.4.5a.5.5 0 0 1 0-1c.2 0 .5.3.5.5Zm13 0a.5.5 0 0 1-1 0c0-.2.3-.5.6-.5.2 0 .5.3.5.5Zm21 0c0 .3-.2.5-.5.5a.5.5 0 0 1-.5-.5c0-.2.3-.5.5-.5.3 0 .5.3.5.5Zm-14 1c0 .3-.2.5-.5.5a.5.5 0 0 1-.5-.5c0-.2.3-.5.5-.5.3 0 .5.3.5.5Zm39 0a.5.5 0 0 1-1 0c0-.2.2-.5.5-.5s.5.3.5.5Zm4 0c0 .3-.2.5-.5.5a.5.5 0 0 1-.5-.5c0-.2.2-.5.5-.5s.5.3.5.5Zm-27 1a.5.5 0 0 1-1 0c0-.2.3-.5.5-.5.3 0 .5.3.5.5Zm-88.2 3.2-.7.7v-2.7l.7.7.6.6-.6.7Zm89.2-.2c0 .3-.2.5-.5.5a.5.5 0 0 1 0-1c.3 0 .5.2.5.5Zm-66 1a.5.5 0 0 1-1 0c0-.3.3-.5.6-.5s.5.2.5.5Zm74 0a.5.5 0 0 1-1 0c0-.3.3-.5.5-.5.3 0 .5.2.5.5Zm-26 1c0 .3-.2.5-.5.5a.5.5 0 0 1 0-1c.3 0 .5.2.5.5Zm31 0c0 .3-.2.5-.5.5a.5.5 0 0 1-.5-.5c0-.3.2-.5.5-.5s.5.2.5.5Zm9 4a.5.5 0 0 1-1 0c0-.3.2-.5.5-.5s.5.2.5.5Zm10 0c0 .3-.2.5-.5.5a.5.5 0 0 1-.5-.5.5.5 0 0 1 1 0Zm-9 2c0 .3-.2.5-.5.5a.5.5 0 0 1-.5-.5.5.5 0 0 1 1 0Zm8 0a.5.5 0 0 1-1 0c0-.3.2-.5.5-.5s.5.2.5.5Zm5 .5a2 2 0 0 1-.9 1.5l-.9.5-.6-1.5-.5-1.5h1.4c.8 0 1.5.4 1.5 1Zm12 .5c0 .3-.2.5-.5.5a.5.5 0 0 1-.5-.5c0-.3.2-.5.5-.5s.5.2.5.5ZM24.7 29c.3.6.4 1 0 1-.2 0-.7-.4-1-1-.4-.5-.4-1-.1-1 .2 0 .7.5 1 1Zm76.4 1c0 .6-.5 1-1 1H99l.6-1c.4-.5.8-1 1-1 .3 0 .5.5.5 1Zm53 .5a.5.5 0 0 1-1 0c0-.3.2-.5.5-.5.2 0 .5.2.5.5Zm22 1c0 .3-.3.5-.5.5a.5.5 0 0 1-.5-.5c0-.3.2-.5.5-.5.2 0 .5.2.5.5Zm11 0a.5.5 0 0 1-1 0c0-.3.2-.5.4-.5.3 0 .5.2.5.5Zm44.6 2.2-.7.6v-2.6l.7.6.6.7-.6.7Zm-200.5.2c0 .5-.7 1.1-1.5 1.5l-1.4.5.5-1.4c.6-1.6 2.4-2 2.4-.6Zm-15.4 1.8-.6.6v-2.6l.6.6.7.7-.7.7Zm139-1-.7.6-.7-.6-.7-.7h2.7l-.7.7Zm-58.7.8c0 .3-.2.5-.5.5a.5.5 0 0 1-.5-.5c0-.3.2-.5.5-.5s.5.2.5.5Zm-57.3 3.2-.6.6-.7-.6-.7-.7h2.7l-.7.7ZM265 41.5c0 .3-.2.5-.5.5a.5.5 0 0 1-.5-.5c0-.3.2-.5.5-.5s.5.2.5.5Zm3 1c0 .3-.2.5-.5.5a.5.5 0 0 1 0-1c.3 0 .5.2.5.5Zm-118 2a.5.5 0 0 1-1 0c0-.3.3-.5.6-.5s.5.2.5.5Zm27 2c0 .3-.2.5-.4.5a.5.5 0 0 1-.5-.5c0-.3.2-.5.5-.5.2 0 .5.2.5.5Zm-115.9 1c0 .3-.2.5-.5.5a.5.5 0 0 1-.5-.5c0-.3.3-.5.5-.5.3 0 .5.2.5.5Zm-20 1c0 .3-.2.5-.4.5a.5.5 0 0 1-.5-.5c0-.3.2-.5.5-.5.2 0 .5.2.5.5Zm26 2c0 .3-.2.5-.5.5a.5.5 0 0 1-.5-.5c0-.3.3-.5.5-.5.3 0 .5.2.5.5Zm-54 4c0 .3-.1.5-.4.5a.5.5 0 0 1-.5-.5c0-.3.2-.5.5-.5s.5.2.5.5Zm184 0c0 .3-.3.5-.6.5a.5.5 0 0 1-.5-.5c0-.3.3-.5.5-.5.3 0 .5.2.5.5Zm-118 1c0 .3-.2.5-.5.5a.5.5 0 0 1-.5-.5c0-.3.3-.5.5-.5.3 0 .5.2.5.5Zm27.7 1.2-.7.6v-2.6l.7.6.6.7-.6.7Zm-94.6-.2c0 .3-.2.5-.5.5a.5.5 0 0 1-.5-.5c0-.3.2-.5.5-.5s.5.2.5.5ZM183 57c0 .5-.5 1-1.1 1h-1l.6-1c.3-.6.8-1 1-1 .3 0 .5.4.5 1Zm89.9 2.5c0 .3-.2.5-.5.5a.5.5 0 0 1 0-1c.3 0 .5.2.5.5Zm16 5c0 .7.4 1.6.9 2l.9.5-.5-2c-.7-2.3-1.3-2.6-1.3-.6ZM90 65.4c0 .3-.2.5-.5.5a.5.5 0 0 1-.5-.5c0-.3.2-.5.5-.5s.5.2.5.5Zm-63.3 3.1-.6.7v-2.6l.6.6.7.7-.7.6Zm3.4-.1c0 .3-.3.5-.5.5a.5.5 0 0 1-.5-.5c0-.3.2-.5.5-.5.2 0 .5.2.5.5ZM228.6 77l2.9 1.4 1.1 2.3 1.2 2.3.5-1.3.6-1.3v2.3l.1 2.4 2.2 3 2 3 .4 2.9.4 2.9h-2v3.1l1.3-.7 1.2-.7-1.2 1.3c-.7.7-1.3 2-1.3 3v1.6l-4 3.7-3.9 3.6h-1.5c-.8 0-2.2.8-3.1 1.7l-1.7 1.7-.9-1.4-.8-1.5v2.4h-2.3c-1.3 0-4.9-.8-8-1.7l-5.8-1.7v-1c0-.5-.9-1.5-2-2.3l-2-1.2.5-2 .7-2h-3.3l.3-4.4c.1-2.5 0-4.8-.5-5.2l-.6-.6 1.7-1.5c1-.7 1.2-1.1.5-.8-1.6.8-1.6.3-.1-2.9.6-1.4 1.5-2.5 2-2.5s.8-.7.8-1.5 1-2.4 2.2-3.5l2.1-2 1 .6.8.5-.3-1.3-.3-1.3 5-.3c2.7-.1 5.1-.5 5.4-.8.8-.7 5.5.2 8.7 1.7Zm-186.4-.6c0 .3-.3.5-.5.5a.5.5 0 0 1-.5-.5c0-.3.2-.5.5-.5.2 0 .5.2.5.5Zm251.4 2.1-.6.7v-2.7l.6.7.7.7-.7.6Zm-64.6.9a.5.5 0 0 0 1 0c0-.3-.2-.5-.5-.5s-.5.2-.5.5Zm-26 4c0 .2-.2.5-.5.5a.5.5 0 0 1 0-1c.3 0 .5.2.5.5Zm81 2c0 .2-.3.5-.5.5a.5.5 0 0 1-.5-.5c0-.3.2-.5.5-.5.2 0 .5.2.5.5Zm13 0c0 .2-.5.6-1 1l-1 .6v-1c0-.7.4-1.1 1-1.1.5 0 1 .2 1 .4ZM55.6 87c.4.5.4 1 .2 1-.3 0-.8-.5-1.1-1-.4-.6-.4-1-.2-1 .3 0 .8.4 1.1 1Zm227.4.4c0 .2-.5.8-1.2 1.2l-1.1.7.7-1.2c.7-1.1 1.6-1.5 1.6-.7Zm12 1.6c0 .5-.5 1-1 1s-1.2-.5-1.5-1l-.7-1h3.2v1ZM40.2 90.5c0 .2-.3.5-.5.5a.5.5 0 0 1-.5-.5c0-.3.2-.5.5-.5.2 0 .5.2.5.5Zm121.9 2c0 .2-.3.5-.5.5a.5.5 0 0 1-.5-.5c0-.3.2-.5.5-.5.2 0 .5.2.5.5Zm132.9 1c0 .2-.3.5-.5.5a.5.5 0 0 1-.5-.5c0-.3.2-.5.5-.5.2 0 .5.2.5.5Zm-122 1a.5.5 0 0 1-1 0c0-.3.3-.5.6-.5.2 0 .5.2.5.5Zm104 5c0 .2-.2.5-.5.5a.5.5 0 0 1 0-1c.3 0 .5.2.5.5Zm11 0c0 .2-.3.5-.5.5a.5.5 0 0 1-.5-.5c0-.3.2-.5.5-.5.2 0 .5.2.5.5Zm-207.9 1c0 .2-.2.5-.5.5a.5.5 0 1 1 .5-.5Zm-51.3 6.1-.6.7v-2.7l.6.7.7.7-.7.6Zm-.6 2.7c0 .7-.3 1.6-.7 2l-.6.6-1.4-1c-1.9-1.6-1.7-2.5.7-2.7l2-.1v1.2Zm179.5 0-.5 1.3h1.4c1.6 0 1.9-1.2.5-2l-.9-.6-.5 1.3Zm12.3 1.1a.5.5 0 0 0 1 0c0-.2-.2-.5-.5-.5s-.5.3-.5.5Zm64 1c0 .3-.3.5-.5.5a.5.5 0 0 1-.5-.5c0-.2.2-.5.5-.5.2 0 .5.3.5.5Zm-261.8 3c0 .3-.2.5-.5.5a.5.5 0 1 1 .5-.5Zm244.8 0c0 .3-.2.5-.5.5a.5.5 0 1 1 .5-.5Zm-245.2 3.2-.6.7v-2.7l.6.7.7.6-.7.7Zm248.2-1.2c0 .3-.2.5-.5.5a.5.5 0 0 1-.5-.5c0-.2.2-.5.5-.5s.5.3.5.5Zm-86 1c0 .3-.2.5-.5.5a.5.5 0 0 1 0-1c.3 0 .5.3.5.5Zm82 0a.5.5 0 0 1-1 0c0-.2.2-.5.5-.5s.5.3.5.5Zm2 0c0 .3-.2.5-.5.5a.5.5 0 0 1 0-1c.3 0 .5.3.5.5Zm-195.9 2a.5.5 0 0 1-1 0c0-.2.3-.5.5-.5.3 0 .5.3.5.5Zm194.6 1.2-.7.7v-2.7l.7.7.6.6-.6.7Zm-30.7-.2c0 .3-.2.5-.5.5a.5.5 0 0 1-.5-.5c0-.2.2-.5.5-.5s.5.3.5.5Zm-172.9 1c0 .3-.2.5-.5.5a.5.5 0 1 1 .5-.5Zm13.3 5.8-.5 1-.7-1.2-.7-1.1-2 .7-1.9.7 1.4-1.6 1.3-1.7 1.9 1.2 1.8 1.1-.6 1Zm-67.2-1.8a.5.5 0 0 0 1 0c0-.2-.2-.5-.5-.5s-.5.3-.5.5Zm14 0a.5.5 0 0 1-1 0c0-.2.2-.5.5-.5s.5.3.5.5Zm238.8 0a.5.5 0 0 1-1 0c0-.2.2-.5.5-.5s.5.3.5.5Zm-44 1c0 .3-.2.5-.5.5a.5.5 0 0 1-.5-.5c0-.2.2-.5.5-.5s.5.3.5.5Zm-196.8 1c0 .3-.2.5-.5.5a.5.5 0 1 1 .5-.5Zm52 2c0 .3-.3.5-.6.5a.5.5 0 0 1-.5-.5c0-.2.3-.5.5-.5.3 0 .5.3.5.5Zm3 0c0 .3-.3.5-.6.5a.5.5 0 0 1-.5-.5c0-.2.3-.5.5-.5.3 0 .5.3.5.5Zm143.8 0c0 .3-.2.5-.5.5a.5.5 0 0 1-.5-.5c0-.2.2-.5.5-.5s.5.3.5.5Zm-164.8 1c0 .3-.3.5-.5.5a.5.5 0 0 1-.5-.5c0-.2.2-.5.5-.5.2 0 .5.3.5.5Zm-39 1a.5.5 0 0 1-1 0c0-.2.2-.5.5-.5s.5.3.5.5Zm55 1a.5.5 0 0 1-1 0c0-.2.2-.5.4-.5.3 0 .5.3.5.5Zm24 0a.5.5 0 0 1-1 0c0-.2.1-.5.4-.5.3 0 .5.3.5.5Zm102.8 0a.5.5 0 0 1-1 0 .5.5 0 0 1 1 0Zm72 0a.5.5 0 0 1-1 0c0-.2.2-.5.5-.5s.5.3.5.5ZM9.9 134.6l-.7.7v-2.7l.7.7.6.6-.6.7Zm72.9-1-.7.7-.6-.7-.7-.7h2.7l-.7.7Zm196.2.3c0 .6-.2 1-.5 1-.2 0-.7-.4-1-1l-.6-1h1c.6 0 1 .5 1 1ZM69 135.4c0 .3-.2.5-.5.5a.5.5 0 0 1-.5-.5c0-.2.3-.5.5-.5.3 0 .5.3.5.5Zm197.9 0c0 .3-.2.5-.5.5a.5.5 0 0 1-.5-.5c0-.2.2-.5.5-.5s.5.3.5.5Zm-181.9 1c0 .3-.2.5-.5.5a.5.5 0 0 1-.5-.5c0-.3.3-.5.5-.5.3 0 .5.3.5.5Zm60 0a.5.5 0 0 1-1 0c0-.3.2-.5.5-.5s.5.3.5.5ZM90.6 138l.6 1-1.5-.6c-1.8-.7-2-1.4-.6-1.4.5 0 1.2.5 1.5 1Zm-83.4.5a.5.5 0 0 1-1 0c0-.3.2-.5.5-.5s.5.2.5.5Zm91.4.5.6 1h-1c-.6 0-1-.4-1-1 0-.5.1-1 .4-1 .2 0 .7.5 1 1Zm-84.4 1.5c0 .3-.2.5-.5.5a.5.5 0 1 1 .5-.5Zm80 0c0 .3-.3.5-.6.5a.5.5 0 1 1 .5-.5Zm8 0c0 .3-.3.5-.6.5a.5.5 0 1 1 .5-.5Zm89.8 0c0 .3-.2.5-.5.5a.5.5 0 1 1 .5-.5Zm-132.9 1c0 .3-.2.5-.5.5a.5.5 0 1 1 .5-.5Zm193.9 0c0 .2-.5.7-1.2 1.1l-1.1.7.7-1.1c.7-1.2 1.6-1.6 1.6-.7Zm-231.8 1c0 .3-.2.5-.5.5a.5.5 0 0 1-.5-.5c0-.3.2-.5.5-.5s.5.2.5.5Zm31 1c0 .3-.3.5-.5.5a.5.5 0 0 1-.5-.5c0-.3.2-.5.5-.5.2 0 .5.2.5.5Zm51.6.1c-.3.4-1.2.4-1.9.1l-1.3-.5 2-.1h1.8l-.6.5Zm-84.6 2a.5.5 0 0 1-1 0c0-.4.2-.6.5-.6s.5.2.5.5Zm239.8 4c0 .2-.2.4-.5.4a.5.5 0 0 1 0-1c.3 0 .5.2.5.5Zm2 0c0 .2-.2.4-.5.4a.5.5 0 0 1-.5-.5c0-.3.2-.5.5-.5s.5.2.5.5Zm-40 3a.5.5 0 0 1-1 0 .5.5 0 0 1 1 0Zm33 0a.5.5 0 0 1-1 0 .5.5 0 0 1 1 0Zm-241.8 1c0 .2-.2.4-.5.4a.5.5 0 0 1-.5-.5c0-.3.2-.5.5-.5s.5.2.5.5Zm25.5.4.6 1h-1c-.7 0-1.1-.4-1.1-1 0-.5.2-1 .4-1s.7.5 1 1Zm62.4.5c0 .3-.2.5-.5.5a.5.5 0 1 1 .5-.5Zm30 0c0 .3-.2.5-.5.5a.5.5 0 1 1 .5-.5ZM20 157c0 .5-.4 1-1 1h-1v-3.2l1 .6c.6.3 1 1 1 1.6Zm15-1.6c0 .3-.2.5-.4.5a.5.5 0 0 1-.5-.5c0-.3.2-.5.5-.5.2 0 .5.2.5.5Zm211.9 0c0 .3-.2.5-.5.5a.5.5 0 0 1-.5-.5c0-.3.2-.5.5-.5s.5.2.5.5Zm-221.2 2.2-.6.6v-2.6l.6.6.7.7-.7.7Zm-13.6-.2c0 .3-.2.5-.5.5a.5.5 0 0 1-.5-.5c0-.3.2-.5.5-.5s.5.2.5.5Zm25 1a.5.5 0 0 0 1 0c0-.3-.3-.5-.5-.5-.3 0-.5.2-.5.5Zm104.9 0a.5.5 0 0 1-1 0 .5.5 0 0 1 1 0Zm-117.3 1.2-.6.6-.7-.6-.7-.7h2.7l-.7.7Zm103.3-.2c0 .3-.2.5-.5.5a.5.5 0 0 1 0-1c.3 0 .5.2.5.5Zm71 0c0 .3-.3.5-.6.5a.5.5 0 0 1-.5-.5c0-.3.3-.5.5-.5.3 0 .5.2.5.5Zm-90 1c0 .3-.2.5-.5.5a.5.5 0 0 1 0-1c.3 0 .5.2.5.5Zm17 1a.5.5 0 0 1-1 0c0-.3.2-.5.5-.5s.5.2.5.5Zm-12.3 1.2-.7.6-.7-.6-.6-.7h2.6l-.6.7Zm-3.7.8c0 .3-.2.5-.5.5a.5.5 0 0 1-.5-.5c0-.3.2-.5.5-.5s.5.2.5.5Zm96 0c0 .3-.3.5-.6.5a.5.5 0 0 1-.5-.5c0-.3.3-.5.5-.5.3 0 .5.2.5.5Zm-91 1a.5.5 0 0 1-1 0c0-.3.2-.5.5-.5s.5.2.5.5Zm17 1a.5.5 0 0 1-1 0c0-.3.2-.5.5-.5s.5.2.5.5Zm-13 1c0 .3-.2.5-.5.5a.5.5 0 0 1 0-1c.3 0 .5.2.5.5Zm94.6 3.2-.7.6v-2.6l.7.6.7.7-.7.7Zm18.3-1.2c0 .3-.2.5-.5.5a.5.5 0 0 1-.5-.5c0-.3.2-.5.5-.5s.5.2.5.5Zm-41 1c0 .3-.2.5-.5.5a.5.5 0 0 1-.5-.5c0-.3.3-.5.5-.5.3 0 .5.2.5.5Zm-20.3 1.2-.6.6-.7-.6-.7-.7h2.7l-.7.7Zm18.3-.2c0 .3-.2.5-.5.5a.5.5 0 0 1 0-1c.3 0 .5.2.5.5Zm32 1a.5.5 0 0 1-1 0 .5.5 0 0 1 1 0Zm-6 3a.5.5 0 0 1-1 0 .5.5 0 0 1 1 0Zm-15 1c0 .3-.2.5-.5.5a.5.5 0 0 1-.5-.5c0-.3.3-.5.5-.5.3 0 .5.2.5.5Zm-38 1c0 .3-.2.5-.4.5a.5.5 0 0 1-.5-.5c0-.3.2-.5.5-.5.2 0 .5.2.5.5Zm42 0c0 .3-.2.5-.5.5a.5.5 0 0 1-.5-.5c0-.3.3-.5.5-.5.3 0 .5.2.5.5Zm-43 3c0 .3-.2.5-.4.5a.5.5 0 0 1 0-1c.2 0 .5.2.5.5Zm25 1c0 .3-.2.5-.5.5a.5.5 0 1 1 .5-.5Zm-41 1a.5.5 0 0 1-1 0c0-.3.3-.5.6-.5s.5.2.5.5Z" clip-rule="evenodd"/>
</svg>
