<svg xmlns="http://www.w3.org/2000/svg" width="201" height="35" fill="none">
  <path fill="#E6FF00" fill-rule="evenodd" d="M119.6 8h-2.4l-.8.3-1.2.4h-.2v.1l.2.2-.2-.1-.1-.1-.2.1c-.1.1-.2.1-.2 0l-.4.2-.3.1-.3.2-1 .6-.8.4v.6l-.1-.1-.1-.2-.9.7a12.8 12.8 0 0 1-1.4 1.1l-.2.4-.3.3v.2l.1.2-.1.1h-.1v-.2l.1-.3-.3.3-.2.2.1.2h-.4V14.8v-.2l-.2-.2h-.2l-.2.1v-.2l-.1-.2-.1.1h-.1V14l-.2-.2-.5-.3-.5-.3-.2.2-.3.2.2-.2.2-.2-.2-.2a.8.8 0 0 0-.5-.2h-.2v-.2l-.1-.2-1.5-.6-1.3-.6h-1l-1-.1-.3.4-.3.3v.7h-.1V13.2l.1.5.1-.2.1-.1.1.2.1.2-.1.1-.1.2v.3a17.7 17.7 0 0 0 .5 1c0 .5.7 1.9 1 2.1l.3.2v.2c0 .1 0 .3.2.5l.3.3.1.1h.2l-.1.3-.1.3.2.1.1.3v.2l-.2.1-.3.3s-.1.3-.4.5l-.7.8-.3.5.2.1h-.2l-.1-.1-.2.2v1h-.3l-.1-.1-.2.4-.1.3.1.1.2.1h-.5v.2l-.2.5v.2H99.2l-.2.2s-.2.1-.2 0l-.1.4v.7l.5.7.3.3h.1l.2-.1v.3h.2l.3-.2v.1l.1.1h.8v-.2l.2-.2V27.6h.2l.3-.1-.1-.1v-.1h1.1v-.5h.3l.2.1.3-.2c.1-.2.3-.3.4-.3 0 0 .3 0 .4-.2l.3-.2h.3l.2-.2-.1-.2v-.2.2l.2.2.2-.2.2-.3h.4v-.2h.4V24.8l.1.1.1.2.4-.4c.3-.2.5-.5.7-.5l.2-.2v-.1h.2V24.2h.2l.2.1V25.1h.3l.1-.1.2.1.1.2h-.1l-.2.1.4.4.5.4h.1V26.5h.2V26.8l.3.2.4.2.1.1v.2l.8.6.8.7h.2l.2.2 1.2.6.4.2.4.2V29.7h-.2.5v.4l.1-.2.2.2 1.2.2h3.3l1.3-.2h.8l.1-.1.7-.2.5-.1.1-.2.2-.2-.1.1v.2h.1a559.7 559.7 0 0 1 1.9-.6h.2l-.2-.2-.2-.2.2-.1v.2h.3c.3 0 1.5-.5 1.6-.7v-.1h.4v-.1l-.1-.2.2.1.1.2.3-.2.6-.5.2-.1.4-.2h.2l-.2-.1-.2-.1h.4V26.3h.2l.1.2v-.2l.3-.5.3-.4-.1-.2.2.1h.1l.3-.2h.3l-.1-.2v-.2h.4l.2-.2s.2-.1.2 0l.2-.2.2-.3-.1-.2v-.1H133c0-.2.1-.5.3-.7l.4-.5.3-.3.2-.3v-.2l-.1-.2h.5l-.1-.2.3-.6.3-.4-.1-.2V20l.1-.2.2-.1v.2l-.2.1.2-.1.2-.2-.2-.1-.1-.2h.1l.2-.1h-.4l-.2.2-.2.1v-.1l-.2-.1h.4v-.2l-.1-.2h.2l.1.1.1-.2v-.2.1l-.1.1V18.6h.2l-.2-.3-.2-.3v-.2c0-.3-.2-.4-.6-.9l-.3-.3V16.3l-.2-.3-.2-.2v-.2c0-.1 0-.3-.2-.5l-.1-.4h-.4l-.1-.3-.4-.6-.4-.4-.2-.2-.2-.2h.1v-.2l-.3.1v-.3l-.1-.3h-.1v.1l-.6-.4-.5-.5-.2-.2V11l-.6-.3a3 3 0 0 1-.7-.4h.1l.2.1v-.1l-.1-.2h-.3l-.7-.4-.7-.4-1-.4-.7-.4v.2l-.2.2v-.5h-.2l-.2.2V8.4l-.2.2v-.2h-.5v-.2h-.8V8H122l-1.3-.2h-1Zm-2.5.5v-.2l.1.1v.1Zm7 .5ZM119 9h-.1.1Zm2.3 0Zm2 0v.2l-.1-.1V9c.1 0 .2 0 .2.2Zm-8.7.1Zm11.2.2h-.1V9.1v.1h.2l-.1.2Zm-10.6 0-.2.1h-.2l.2-.1c.2-.2.3-.2.2 0Zm8.7 0v-.1Zm1 0v-.1Zm-5.7 0v.1-.1Zm1.6 0Zm2.6 0h-.1Zm-1.7.2h-.1Zm4.7 0h-.1.1Zm.5 0h-.1.1Zm-3.3.1h-.1.1Zm-10.7.4h-.1v-.3.1l.2.1h-.1Zm10.8 0Zm-8 0v.2-.2Zm9 0v.2-.2Zm-3.1.2h-.1Zm3.7 0h-.1.1Zm1.1.5h-.1.1Zm1.2 0Zm-1 .2-.1.1V11Zm1 0-.1.1V11Zm.5 0v.3h-.2v-.1l-.1-.2H128Zm1.5.2h-.1Zm-28 .1v.2l-.2-.2h.2Zm9.3.2H110.6l.2-.2v.2Zm6.4 0h-.1.1Zm2.7.1h-.1Zm1.3 0v.1-.1Zm5.4.3v-.2l.1.1v.1Zm-24.4 0-.1.2h-.2c.1-.3.3-.3.3-.2Zm-1.8.3h-.1V12l.2.2h-.1Zm16.9-.2-.1.1-.2-.1h.4-.1Zm-7.1.1-.1.1Zm-7 .4-.1.1-.2-.2h.4l-.1.1Zm27.5.4h-.1v-.1h.1Zm.4 0-.1.1Zm-14.4.3Zm3.3.3h-.1.1Zm-14.1 0v.2l-.1-.1h.1Zm-2.4.2h-.1Zm3.1.3V14Zm-6.5.4-.1.1v-.1Zm22.3 0Zm-14.3.2h-.1Zm3.3.1v-.2l.1.1v.1Zm-11.5 0Zm20.8 0-.1.2h-.1v-.2h.2Zm11 .4h-.2l.1-.1Zm2 .6v.2h.1v-.2c-.1-.3-.2-.3-.2 0Zm-24.3 0v.1Zm-7.7.5V16v.1h.1v.2Zm.4 0v-.1Zm24.2 1 .3.2.2.2.1.3v-.1l.1-.2v.6l.3.3.3.4v.7h-.2v.4l.2-.1h.1-.1l-.2.4v.2l-.5.5-.4.4h-.2l-.4.2-.2.2-.1-.1-.1-.2V21.8h-.3l-1-.2-.7-.2v-.1c0-.1 0-.2-.2-.3l-.3-.2.1-.2v-.3H123v-1.1l-.1-.1.2-.2c.1 0 .1-.1 0 0-.1 0-.1 0 0-.4l.3-.3V18l.3-.4.3-.3h.1l.1.1V17.1h.5l.7-.1c.1-.1.7 0 1 .2Zm-22.7 0h-.1V17Zm30.6.2h-.1V17.2v.1l.2.1h-.1Zm-7.9 0v.1Zm-3.1.6h-.1Zm9.8.2Zm1.6 0-.1.1-.2.1v-.1l.2-.1Zm-29.4.2v.1-.1l-.1-.1h.1Zm27.7 0-.2.2h-.1l.3-.2Zm1.4.2v.2l-.3-.2H134.4Zm-31 .2Zm14.9.3h-.1V19Zm16.1 0v.1Zm-14.8.2h-.1.1Zm12.7.6h-.1Zm1.3 0h-.1Zm-25.3.1v.1h-.1V20h.1Zm-6.2.8h-.1V20.6v.1l.1.1Zm-.1.3v.3h-.2l-.1-.1c-.3-.2-.2-.3 0-.3h.3v.1Zm21.8 0v.2h.1c.2 0 .3-.2.1-.3h-.1v.1Zm1.5.2v-.1Zm7.8 0v.1Zm-31.8.4-.1.1Zm29.7 0v.1-.1Zm-29.8.4v.1V21.9l.1.1v.1Zm30.2-.1Zm-10.5.1Zm10 0h-.1.1Zm.3 0h-.1Zm-23.9.2Zm23.7.2v-.3.2Zm-3.7 0h-.2.1Zm-21 0h-.2.1Zm1.6.8-.1.1-.1-.1V23l-.3.1-.2.1.1-.2.2-.2.2.1.2.2Zm-8.2-.2h.1-.1Zm1.7 0Zm29 0Zm-5.3.1h-.1Zm-24 .1Zm6.4.3h-.1v-.1Zm.3 0h-.1v-.1h.1Zm17.5 0h-.1v-.1h.1Zm-20 0v.1h-.2.1Zm-4.8.2h-.1.1Zm6.7.1h-.1.1Zm3 0h-.1Zm12.5 0h-.1Zm8.7 0Zm-31.6.3h-.1v-.3.1l.1.1Zm8.8-.1h-.1l-.1-.1H108.7Zm23.9 0v.1h-.2V24l.2.1Zm-25.5.2h-.2.1Zm24 0Zm-22 .1h-.2.1Zm7.2 0h-.1.1Zm-6.6.2v.1h-.1c-.2-.1-.3-.2-.1-.2h.2Zm-10.2 0v.1-.1Zm11.2.1v.1h-.2v-.2l.2.1Zm-10.3.2Zm9.7 0h-.1.1Zm1 0h-.1Zm11 0h-.2.1Zm-16.2.1h-.1Zm23.5 0-.1.2h-.1v-.1c.1-.1.2-.2.2 0Zm-28.2.1v.1-.1Zm3.8.2h-.1.1Zm6.3 0h-.4.2l.3-.1h-.1Zm-10.3.2h-.1Zm29.2.5h-.2.1Zm.2 0Zm-4.9.4v-.1Zm4 0v-.1Zm-29.4 0v.1Zm3.1.1.1.2h-.1l-.1-.2h.1Zm7.6.1Zm3.7 0h-.1Zm-13.4.3-.1.1h-.1v-.4.1c.2 0 .2.1.2.2Zm1.8-.2Zm25.8 0Zm-26.9.3V26.8v.2Zm-1.7 0v-.1Zm3 0h.2-.1Zm12.8 0v.1Zm-14.2.2-.1.1-.2-.2h.4l-.1.1Zm12.5 0Zm8.7 0h-.1Zm-11 .1Zm2.1.2h-.1.1Zm-1.5 0v.2l-.2-.1H112.5h-.1Zm-.4.2h-.1Zm11.6 0h-.1.1Zm-11 .1h-.1Zm2 .1Zm-1.6.2Zm11.6.3-.1.1V28.2l.1.2Zm2.2-.1h-.1Zm-5 .1h-.1.1Zm-2.5.2h-.1l-.1-.1H119.4Zm2.3 0h-.1v-.1Zm3.8 0v.1Zm-.7.4Zm-1.8.2h-.1V29Zm-4.6 0h-.1Zm5 0Zm-5.1.4-.1.1v-.1Zm3 .2h-.1Zm-5 0v.1h-.1.1Z" clip-rule="evenodd"/>
  <path fill="#000" fill-rule="evenodd" d="m15.6.1-1 .4-.6.4-.5.5a2 2 0 0 0-.5.6l-.4.7-.4.4V4.4l.4.6.4.6h.4V6l.1.2.3.1h.4v.1l.1.2h1.1c1.3 0 1.5-.1 1.7-.3l.2-.1-.1-.2v-.1h.1l.2.1.4-.2.5-.1.5-.5.8-.7.2-.3.1-.6V2.4l-.2-.6-.3-.3-.3-.5V.8h-.4l-.5-.5-.6-.3H17l-1.3.1Zm1.7.2h-.1.1Zm1.3.5h-.2.1Zm-2.8.1h-.1Zm3 .7h-.1V1.3l.2.2h-.1Zm-5.3 1-.1.2v-.4.1l.1.1Zm135.3 1-.6.1V4l-.1.1h-.1c-.2-.1-1 .1-1 .3h-.3l-.2.4-.4.3-.4.5-.6.7-.4 1-.2.7v.4l.1.6v.2l-.2.2.2.4.1.4h.3c.1 0 .3 0 .3.2v.1h-.2l-.2.1h.5l.4.4.4.4-.1.4a8.3 8.3 0 0 1-.5 1.1l-.5.9-.6 1.1-.6 1-.4.5-.2.4v.4l-.1.3-.3.7-.2.7h-.2v.2l.2.2H142.4h.1l.2.2h-.1c-.2 0-.4.4-.5.7l-.3.8-.3.5-.3.8a11.2 11.2 0 0 0-1 2.8 20 20 0 0 0-.4 2l-.1.4.2 1 .3 1 .5.5c.6.6.8.6.9.3V30l.2.1.2.2-.3.2-.2.1.2.1 1 .5.4.2.8.2.3.1h.2l.2-.1.1.2h1.1l.4-.2c.3 0 .5-.2.6-.3v-.1h.3l.2.1.1-.1V31l.2.1h.1l.3-.2c.2 0 .4-.2.6-.4l.4-.2.4-.7c.2 0 .3-.2.5-.3l.6-.6.4-.3V28h.2l.2-.3.2-.2V27c0-.9-.2-1.9-.4-1.7l-.5-.3-.4-.4h-.4a1 1 0 0 0-.5 0l-.1.1-.6-.2-.5-.3v-.6l.3-.7.5-.8a28 28 0 0 0 1.8-3.8l.3-.6.3-.4.3-.6c0-.3.2-.7.4-1l.3-.6s0-.2.2-.3l.1-.2V14.4h.1l.2-.2V14c0-.2.5-1 .7-1.1v-.2l.3-.7a21.4 21.4 0 0 0 1.6-4.2V7c0-1-.4-1.7-.6-1.7l-.1-.2v-.2h-.2l-.2-.1v-.2l.2-.1h-.5l-.1-.2-.2-.2c-.1 0-.4 0-.6-.2l-.3-.2-.2.1H152.4l-.1-.2h-1.8v-.2h-.5c-.3 0-.9 0-1.2.2Zm-136 0h-.1l-.1-.1H12.9Zm2.2 0H15h.1Zm-1.6.2h-.1Zm136.8 0V4h-.2v-.2H150.3v.1Zm.3 0h-.1.1ZM88 4h-.4v.2h-.5V4l-.4.1-.3.2.2.2h-.3l-.2-.2-.1.2-.1.2h-.7L85 5V5l.2.2-.2-.1-.1-.1-.5.3-.4.4v.2l-.1.4s-.1.2-.3.2h-.2v.2h.1-.4l-.2.4-.2.2.1.1v.1l-.2.1-.3.2V8h.2l.2.2H82v.1a27 27 0 0 1-.1.4c-.2.2-.1.4 0 .3h.2V9.3H82v.5l.1.6.4.3.4.4V10.8l.2.3.2.4h.4l.4-.1.1.1.1.1h-.1l-.2-.1v.2l-.3.3-.7.9-.7 1c-.2.2-.4.7-.4.9l-.5 1-.7 1.3a6 6 0 0 1-.9 1.8l-.2.4-.3.7c0 .3-.2.6-.3.8l-.3.7-.3.2-.3 1-.3 1V25l-.1.6v.4l.2-.1.2-.2V26h-.3l-.3.1.1.8a5.8 5.8 0 0 0 .6 2.5l.4.6c.3.4.4.4.7.4l.2.2v.2l.6.1c.3 0 .5.2.6.3l.2.2h.4l2 .2.2-.1.2-.2v.2h.3c.1 0 .4 0 .7-.2l1.3-.5a7 7 0 0 0 1.2-.5l.3-.1h-.2l-.1-.2H87.4l.7-.8c.8-.8 1.3-1.5 1.3-1.8v-.2l.2.1v-.5l.1-.6-.2.1-.2.1.2-.4.3-.4-.3-.2-.2-.2h.1L89 25l-.5-.3h-.9c-1 0-1.2-.1-1.3-.3h-.1l.2-.5c.2-.2.3-.5.3-.7l.1-.3.1-.3.3-.8.2-.5c-.2-.1-.3-.5-.1-.5l.2.2v.1l.3-.7.2-.8v-.3l.3-.2c.1.1.4-.2.4-.4l.8-2 .1-.3.2-.2.2-.5v-.3l.5-.5.2-.4-.2-.2c-.1-.1-.2-.2-.1-.3l.2.2h.3l.3-.4.4-.5c0-.2.8-1.8 1-1.8V11l-.1-.3h.4v-.6l.3-.9.2-.4h-.1l-.2-.2.2-.2.2-.3v-.9l-.2-.2-.2-.2h.2v-.5L93 6H92.8l.1-.2.1-.2-.3-.4-.4-.5-.3-.1a13.9 13.9 0 0 0-.6-.3L90 4.1l-.3-.1-.1-.1h-.2V4.2l-.1-.1-.1-.2H88Zm-71.5.2Zm72.6 0H89Zm-71.3.3h-.1V4.2l.1.2Zm134.5-.2h-.2.1Zm-138.8.1h-.1.1Zm76 0v.1h-.1l-.1-.1H89.6Zm1.3.2V4.4v.2Zm62.7 0v.2c-.2 0-.4-.2-.3-.3.2-.2.3-.1.3 0Zm-140.4 0H13h.1Zm150.3 0-.6.4-.2.2h.1v.2h-.1l-.2-.2-.3.5-.7.9-.4.5v.8l.2 1.2v.3l.5.3c.4.4 2 1.3 2.6 1.3h.3l.4-.1.3-.2v.1l.1.1c-.1 0 0 .1 0 .2h.4l.2-.3.2.2h.5v-.4.3l.1.2h.1c.1 0 .2 0 .2-.2h.2l.2-.1.2-.2s.3 0 .5-.3l.5-.4.3-.5.3-.5c.1 0 .4-1.4.4-2v-.4l-.2-.2-.2-.3-.2.1h-.1V6l.1-.2-.5-.4-.5-.4h-.1v.1l-.2-.2-.2-.1h-.4l-.5-.1v-.2H165v.4l-.1-.2-.2-.2h-.5a3 3 0 0 0-.8.2Zm-76 0v.2-.1Zm60.2 0v.2l-.1-.1h.1Zm1.8 0h-.2.2Zm15.1 0v.2-.1Zm-13.7.2h-.2.2Zm13.5 0h-.1ZM18.6 5h-.2.1Zm144.8 0h-.1ZM13 5.1H12.8h.4-.1Zm79 0c.1.1.1.2 0 .2V5s-.1 0 0 0Zm71.5.1v.1h-.2V5H163.7v.1Zm-10.3.3h-.1v-.1Zm12.9 0h-.2l.1-.1Zm.4 0h-.2.2ZM16 5.5l-.2.1h-.2.5-.1Zm.7.1.1.2h-.4v-.2H16.8Zm69.1.4v.2l-.1-.2-.2-.3v-.2l.2.1.2.2V6Zm-1.3-.3Zm2 0Zm59.3 0h-.1.1Zm-53 .3-.2.1h-.1l.2-.2V6ZM14 6v.1Zm148 .2h-.1.1Zm4.6.3h-.1l-.1-.1H166.7Zm1.6 0h-.1.1Zm1 0h-.2v-.1h.3-.1Zm-13.9 0h-.1.1Zm11.6 0Zm-78.7.2H88h.1Zm73.5.2-.2-.1-.2-.2.2.1c.2 0 .2.1.2.2Zm.6 0h-.2.2ZM92 6.8H92h.1Zm-7.7.3-.1.1V7l.1.2Zm70.4-.1h-.1.1Zm-71.7.1Zm80 0ZM13 7.6 12 8h-.5l-.6.5-.6.5a10.9 10.9 0 0 0-2.6 2.3l-.4.6-.1.4v.8l.2.6v.4h.2v-.1l.2.2v.3h.4a23 23 0 0 1 1.4.3c.4 0 .4.1.2.6l-.2.7-.2.4-.2.3v.2l.2.2H9v.7H8.8l-.2.7-.1.8-.1.3-.2.5-.1.4H8l-.1.9-.2 1-.1.2.1 1.2.2 1.5v.3h.3l.2-.1h-.2l-.1.2v2l-.2.3h.2l.1.1c0 .1 0 .2-.2.2h-.2l-.1.2-.2.3-.3-.1-.4-.2v-1.1l-.4-.7c-.5-1-.7-1-1.1-1.1h-.4v-.2l-.6-.2-.6-.1-.2.1-.2.1v-.1l-.1-.1-.6.3-.6.3-.6.6-.7.6-.2.8-.3.8v.6c0 .8.3 2 .5 2.3v.2l.2-.1h.2v.5l.7.7.9.6h.1l.3.3.4.2h.1v-.4h.1l.1.2.3-.2h.2v.3l.2.3a7 7 0 0 0 2.6-.2 8.3 8.3 0 0 0 1.7-.2l.5-.1.3-.2.7-.4.6-.5.4-.3h.2v-.2l.1-.2.5-.6.4-.5-.2-.2.3-.5.3-.7.2-.5c0-.5.3-1.3.5-2l.3-.8c0-.1 0-.6.2-1l.2-.9H14l-.2.2c0-.1.1-.3.3-.3l.3-.2H14v-.4h.2v.2l.2-.2v-.8l.1-.7h.4v-.2c0-.1 0-.4.2-.7l.2-.6.1-.1h.1l.1-.5.2-.6.9-1.3v-.6l.2-.1h.2v-.3l.4-1.2.5-1v-.3l-.2-.2.3-.7.3-.7v-1.3l-.1-1.3-.1-.4-.1-.4-.4-.4c-.5-.6-.7-.8-1.4-1.1l-.6-.3h-1l-1-.1V7.7l-.1-.1-.1-.1-.6.1Zm106.9-.1-1.5.1h-1.3l-.8.4-1.1.3h-.3V8.6l-.2-.1-.1-.1-.2.1-.6.3-.4.1-.2.3-.4.2-.9.5-.7.4v.2l.1.3v-.2l-.2-.2-.3.3-.4.3V11.3h-.4l-.6.5-.6.6v.2h-.4v.2l-.1.5v.3H108l.1-.2v-.2l-.3.2-.2.4-.1.3v.3l.2-.2h.5l.2-.5.3-.3.4-.2c.2 0 .3-.2.3-.2l.4-.2.6-.3.3-.2s.2 0 .3-.2l.8-.6.7-.4c.1-.2.4-.3.6-.3h.4l.4-.5.4-.4h.1l.2.1h.5a12 12 0 0 1 .7-.3 9 9 0 0 1 2.3-.6h.6V9 9l.2.1V9l.2.1 1.1.1c2.6.1 4 .3 4 .6v.1h.2l.2-.1h.1l.5.2 1 .4.8.3.1.1.4.2.4.3s.1.2.3.2c.3 0 .5.2.8.6l.4.2h.1l.2.4.1.3.6.5.5.4v.2l.1.3.2-.1h.2l-.1.2-.1.2.3.2.5.1h.2-.2l-.2.1V15.3h.4l-.2.2.3.2.4.6a41.7 41.7 0 0 0 .7 1.5l.2.2h.7l-.2.1-.2.1.1.3v.3h.5V18.5h.5v.2l-.1.1h-.4l-.3.1v.4l.3.1.6.6h-.4v.1l.1.2h-.2l-.3.1v.1h.1l-.2.3-.3.3v.7h-.4l-.5.5-.8 1c0 .2-.3.4-.3.4h-.1v.1l.1.2h-.1c-.3 0-.7.4-.8.6 0 0-.3.4-.7.6l-.6.5.1.2h-.2l-.1-.1-.6.3-1.2.4-.6.2-.5.4-.5.5-1 .5-1.2.4-.9.2a23.6 23.6 0 0 1-5.8.4h-.9V29l-.4-.2h-.6l-.3-.2c-.3 0-.7-.3-1.2-.6l-1.8-.9-1-.7-1.2-1a4 4 0 0 1-1-.8l-.6-.3h-.1v.2l.1.3.1.5.1.2H108.7v.2c0 .2.6.8.8.8h.2v.4h.1l.1.1.3.4.3.2.2-.1v.4l.7.5.8.7.4.2.2.1 1 .6 1 .5h.1v-.2l-.1-.3.1.1h.2v.5l.1-.1h.2l.2.1 1.5.2 1.6.1h.7l1-.2h1.5l1.2-.4 2.1-.7.8-.2V29l-.1-.3v.2l.1.1h.3a5 5 0 0 0 1.8-.9l.2-.2.2.2H128.8a15.6 15.6 0 0 0 .8-.7l.3-.1.4-.2-.1-.2V27h.1l.2.1.1-.2.4-.6.3-.3v-.2l-.2-.1H131.7l.4-.1v-.2l-.2-.2h.4l.4-.1.2-.3.3-.3v-.2l-.1-.2h.2l.1.1V24l.7-1 .6-.8v-.3l-.1-.2h.5l.1-.5.3-.4h.1v-.4l-.1-.3h.2l.2-.1v-.4c0-.3-.2-.4-.4-.1l-.1.2h-.2l.1-.3V19h.4V19l.1-.2-.2.1v-.1l.1-.2h.2H135.6v-.4H135.3v-.7l-.2-.3-.5-.5s-.1-.2 0-.2l-.1-.6-.2-.4-.1.1-.1.2v-.6l-.4-.5a26.4 26.4 0 0 0-1.6-1.8l-.2-.3-.4-.4-1.1-1-.7-.7-.3-.1-.4-.1.1-.2V10l-.3-.1-.6-.4-.8-.4-.9-.4-.6-.3h-.3l-.2.1V8.2h-.2l-.2.1v-.1l-.1-.1-.7-.1a41 41 0 0 0-4.3-.5ZM14 7.6Zm.2.1v.1V7.5l.1.2Zm69.7 0H84h.1Zm8.1 0c0 .2 0 .3-.2.3h-.2l.1.2v.1h-.2v-.6h.5Zm1.2 0h-.1Zm51.6.2V7.7 8Zm-131 .3-.1.2v-.5.3Zm103 0V8l.2.1-.1.1Zm38.2-.2h-.2.2ZM16.5 8Zm69.1.5c.1.2 0 .2-.3 0l-.2-.2h.2c.1 0 .3 0 .3.2Zm3.4-.1h-.1Zm3.5 0h-.1Zm53 0v.2h-.2v-.2h.2Zm-28.2.2-.2.1h-.1v-.1l.3-.2h.1v.2Zm1.1 0h-.1.1Zm5.8 0Zm20.7 0v-.2.1Zm24.4-.1v.1l-.2.1v-.1l.1-.2.1.1Zm-51.5.1h-.2.2Zm1.1 0v.1h-.1v-.1h.1Zm4.5.2V8.7v.1l.1.1Zm-35 0h-.2v-.1H88.5Zm26 0h-.2.2Zm11.5.1v.1V8.8l.1.1V9ZM92.2 9Zm22.7.3-.2.2v-.2c0-.2.2-.4.3-.3l-.1.3ZM92.7 9Zm34 .1h-.2.1Zm.4 0v.1h-.1v-.1h.1Zm-12 .6c-.2.1-.2 0-.1-.3v-.3.6Zm-22.4-.3Zm-1.7.1h-.1Zm21.5.2V9.6v.1h.1v.2Zm2 0h-.1v-.1Zm39.2.1h-.2H153.8Zm14.4.1h-.2.1Zm-20.1.1h-.2.1Zm16.3 0 .1.2h-.1l-.1-.1V10h.1Zm-81 .3v.1l-.1.1c-.3.1-.3.1-.3-.2v-.2h.5v.2Zm7.5-.1h-.2v-.1H90.9Zm22.8 0h-.1v-.1h.1Zm36.3 0h-.2l.1-.1Zm-80.5.1-.7.3-.6.2v-.1c.2-.1 0-.1-.2 0l-1 .4-.7.2-.5.5-.6.5s-.2 0-.3.2l-.3.3V13.2H64v.4h-.2c0-.1-.3 0-1 .7l-.1.4-.4.5a4 4 0 0 0-.6.8l-.8 1-.5.7h.1l.2.2-.3.3c-.2.3-.6 1-.6 1.3l-.2.5-.3.6a19.9 19.9 0 0 1-.6 2l-.1.4-.2.1V26l.2.7.3.7.1.1.4.7.5.5v-.7h.2v1l1 .5.9.5.2.2.6.2.9.2.2.2.1-.3.2-.3v.5l.1-.1h.1l.1.2h.8c0 .1.2.2.5.1h.4v.2h3.2l.7-.1v-.1l.7-.2.7-.2.6-.2.6-.2v-.2l.2.1.5-.4.6-.6.3-.1.3-.8.4-.7.4-.8.3-.6v-1.1l-.2.1-.1.1v-.2l.2-.2H75l.2-.1.1-.1H75c-.4-.2-.7-.1-1.3.1l-.4.2v.2h-.8l-.4.3-.6.3H69c-.5-.1-.8-.3-1.1-.5l-.3-.3-.1.1h-.2s-.2-.3-.5-.4l-.5-.2-.3-.4-.3-.5V23H65.4l.1-.2h.1l-.1-.3-.2-.1h.3l.2.1v.2l-.1.2.3.2 1.2.3h.4l.5.1h.5v.2h.3l1.7.2.3-.1.2-.2V24h.5v-.2l-.1-.1h-.2v-.2l.2-.2.2.4.2.5v-.6.2l.1.2.4-.2.5-.2.4-.1.4-.2.2.1h.1l.5-.1.4-.2c.2 0 2-1.5 2.2-2 .2-.3.9-3.3.9-3.8l-.3-.1c-.4 0-.4 0-.2-.2l.3-.1v-.4c0-.2 0-.7-.2-1.1l-.2-.8v-.1h-.1l-.2-.3V14h-.2l-.2-.2c.1-.1 0-.2-.8-1.1l-.7-.7-.7-.5-.7-.4-.8-.2c-.7-.2-1-.3-2.2-.4l-1-.1h-.4Zm13.2.1Zm9.3 0h-.1Zm21.3 0h-.1.1Zm14.7 0h-.1Zm37 .2V10.4l.2.2h-.1ZM16 10.7v-.1Zm112.4.1-.1.2h-.2V10.8h.2v.1Zm65.8 0-.2.1h-1l-.3.3-.6.3h-.3l.1.3v.1h-.5l-.2.1-.3.2-.6.4-.7.5-.1.3v.2h-.4l-.3-.5-.3-.5h-.2l-.2-.1-.2-.4-.1-.3h-.2l-.2.2v-.2h.1c-.2 0-.4-.2-.6-.4a3 3 0 0 0-1.8-.6h-.6v.5l-.1-.2-.1-.2-.8.2-1 .1-.8.4v.1h-.1l-.1-.1v.4h-.2l-.2-.2v.2l-.1.2h-.3l-.3.1-.3.2s-.4.1-.7.4l-.6.3v.1l.1.1-.1.1h-.2l-.4-.4-.4-.5h-.1l-.1.1v-.2l-.2-.3-.9-.4-.9-.4h-1.9l-.2.2-.1.1h-.1l-.2-.1v.1l-.1.2h-.8v.1l-.1.2h-.1l-.1-.1-.6.6-.8.7h-.2l.1.2v.2-.1l-.5.1-.3.2v.3l.1.2-.2-.1-.4.6-.4.8-.1.2-.3.3-.1.3H168.5l-.1.1-.2.4-.1.2.1.4.3.5v.5l.4.4.6.4.4.2.2.1.1-.1.1-.2V19.8h.2c.2 0 .3 0 1-.4l.5-.2.2.2.2.1H172.1v.7c.3-.2.3 0 0 .2l-.4.6a53.6 53.6 0 0 1-.8 2l-.2.4-.2.3c-.2 0-.3.2-.3.3 0 .2-.7.7-.9.6l-.5.5-.3.4v.2l.2.1-.1.1-.2.1.1-.1v-.2c-.2 0-.4.6-.6 1.5l-.2.7h.1l.1.1v-.4h.2v.2l-.1.3-.2.3v.4l.1.4.5.6.4.5.2-.1h.1v.1l-.1.2.1.1 1 .3.8.1h4v-.1h.4l.2-.2.2-.1H176l.2-.2c.2 0 .4-.4.6-.6l.5-.6.1-.2v-.2l-.1-.2h.2c.2.2.2.1 0-.2V28c.2 0 .4-.6.3-.9l-.1-.2h-.2l.1-.1.1-.2-.1-.1-.2-.2v-1l-.1-.2h.5v-.4l-.1-.4h.5l.1-.5.2-.6.4-.6.4-.8.5-1.2.2-.4.2-.1V20l-.1-.2h.2l.2-.1-.1-.2v-.2l.1.1h.3l.3-.3.2-.4h.6l.1.5v.6l-.2.8c-.2.7-.4 1.2-1.6 3.6l-.2.6v1l-.2.2c0 .2-.2.4-.3.5-.3.4-.6 1.2-.6 1.7v.4l.2.5.3.5v-.2l.2-.2v.6l.4.3.3.2h.1v-.1l.8.4.7.3h.8v-.2h.2c0 .2.3.2.5.3h.4l-.1-.1v-.2h.1l.2.3h.9l.2-.1.2-.4v-.2h.2v.3l-.1.3v-.2l.1-.1h.2l.2.1.3-.3.7-.6.3-.2V28.8l.2-.3h-.2l-.2-.1.2-.1.1-.2v-3l.2-.1.3-.7.2-.7.4-.8c0-.4.2-.8.3-.8l.1-.3v-.2l.3-.4.3-.5.3-.4c0-.2.3-.4.4-.6 0-.2.3-.6.6-.8l.4-.4h.9l.2.5v.3H192.5v.8l-.1.9-.4.5-.3.6-.3.5c-.4.5-.4.6-.2.5l-.2.3a9 9 0 0 0-.9 1.4l-.6 1v2.6l.2.7.1.5.4.4.4.4h.5l.8.3h.5v.5l.2-.2.3-.1v.4h.3l1.8-.1.6-.2h1.4l.3-.2a6 6 0 0 0 1.3-1.2l.2-.2.2-.3V29l-.1-.2.1.1h.1l.2-.1.6-1 .3-.7v-1l-.4-.5-.3-.5h-.2l-.2-.2v-.1h-.7l-.8.2v.1l-.1.2h-.2l-.2-.1.1-.1a13.2 13.2 0 0 0 1.6-3.3l.1-.1v-.2h-.1c.2 0 .3-.2.3-.3 0-.2.2-.4.3-.5l.2-.2v-.6l.1-1.5.1-.7.2-.3.2-.3v-2.2l-.3-.5a6 6 0 0 0-.4-.6l-.5-.8-.8-1-.4-.4-1-.3a11 11 0 0 0-1.3-.4h-.1v.1l.1.2H195.2v-.4h-.4l-.6.1Zm-167.6.3c-.3 0-.6.2-.8.3l-.4.2-2.6 1.3c-.5.3-1.6 1.4-1.6 1.5v.2H21c-.3.2-1 .7-1 .9l-.3.5-1.4 1.6-.2.4c0-.2-.2 0-.8 1.2l-.3.5.1.1.1.2-.1-.1-.2-.1v.1l-.3.9c-.6 1.3-.6 1.1-.8 2.6v2.5l.1.7.3.3a133.2 133.2 0 0 1 1 1.6c0 .2 1 1 1.2 1l.5.3c.5.5 1.4 1 1.9 1.2l.5.2.2-.1h.2l.1.2h.4l.6.2.9-.1H24l.2.1.3-.1.6-.2 1-.2.5-.2h.2l.2.1.2-.2.2-.3h.3c.3 0 .7-.2 1-.6l.6-.6.3-.4.1-.1h.2v.3l-.1.4H30v.2l-.2.2.4.1.3.2h-.3l-.2-.1.2.3.6.6.5.3V31l.1-.1v.1c.2.2.7.3 1.7.4h.8l-.1-.2h.8l.7-.3.7-.4-.1-.2h.1l.2-.2v.4l.5-.5c1.1-1.1 1.3-1.4 1.5-1.8 0-.2.2-.3.3-.3v-.6H38.8V25.6l-.2-.4c0-.2-.3-.4-.4-.4h-.2l.1-.2v-.1l-.1-.1a.8.8 0 0 1-.3-.2l-.1-.1-.4.1-.4.1h-.1l-.2-.2-.5.3-.5.3v.1H35l.8-2c.1 0 .3-.3.3-.6.2-.6.8-2 1-2l.2-.6.1-.4V19l-.1-.2h.1l.1.1.3-.2.6-1 .4-.8v-.6l.2-.3.5-1 .3-.8V14l-.2-.1-.2.1v-.1s.1-.2.3-.2h.3l-.1-.6a4 4 0 0 0-.2-1l-.2-.3H39l.2-.2-.5-.2-.6-.3v.2l-.1.3v-.1l-.6-.4c-.4-.1-.6-.2-1.5-.1h-.7v.2h-.1l-.2-.2-.1.3v.2l-.2-.1-.2.2-.2.4H34l-.5.4-.3.4h-.6v-.1l.1-.2-.4-.4-.3-.4h-.2v.1l-.4-.3-.4-.3H31l-.2.1.1-.2h-.6l-.7-.1-.3-.1h-2l-.6.2ZM99 11l-.4.5-.2.4v.2l.1.2-.2.1v.6l.2.6h.1l.2-.1v1.2l.1.2.3.7a7 7 0 0 0 1 2l.3.4c0 .2.5 1 .6 1l.1.3c0 .1 0 .4.2.5l.1.2-.3.3-.2.4-.7.8-.7.9-.3.3-.2.1v.9h-.2l-.2-.1-.1.4-.2.4.2.1-.3.2-.2.2v.6h.2l-.2.2-.3.4-.1.2.1.5.2.5.5.4.4.4h1.4l.2-.2v-.2V28l.9-.2.8-.3V27.2h.5l.3-.2.2-.3.2.1.4-.2.7-.4.5-.2v-.2l.1-.2h.1v.1l.4-.1.3-.1.1-.2V25l.1.2.1.1.5-.3a361 361 0 0 0 1.1-.7v.1l.2-.1.2-.2-.2-.1c-.2 0-.4-.2-.5-.3a1 1 0 0 0-.4-.2h-.2l-.4.1a104.6 104.6 0 0 1-2.3 1.3l-.2.1c-.1 0-.8.2-.8.4v.1l-.2-.2v.2l-.5.2-.5.2V26.2h-.5l-.7.1-1 .2h-.3l-.1-.4-.2-.4h.1l.4-.9c.4-1 1-2.3 1.4-2.6l.1-.4v-.3.1h-.2l-.1-.1a1 1 0 0 1-.2-.3V21h.3l.2.2.2.1.4-.6.2-.6h.2l.1.1.2-.2.3-.2h-.2l-.1-.1v-.2l.2-.1v-.3c0-.2-.2-.3-.2-.3l-.1-.2c0-.2-1-1.7-1-1.7h-.2v-.2c0-.2-.5-1-.8-1.2v-.2c0-.3-.6-1.4-.7-1.4l-.3-.4-.1-.4.2-.2.2-.1V12h.3l.3.1V12l.2.2.2.1h.2l.2-.1V12.4l.5.2c.6.3.8.2.8-.1v-.3c.2 0 .2 0 0 .4v.2l.3.3c.4.3 1.6.8 1.7.8h.1v.2h.2l.2-.1v.2l.4.1h.5l.3.2c.2.3.4.3.4 0v-.1H106.8v.2l-.1.2.3.1c.4.1.5 0 .3-.3l-.2-.2h-.2l-.2-.2-.2-.1-.2-.2v-.3l-.6-.3a4 4 0 0 1-.8-.4l-.4-.3-.2-.1v.1l-.2.2v-.4l-1.5-.8-1.4-.7H99Zm30.9-.1h-.1.1Zm19 .2-.1.1V11Zm36.4.2-.1.2-.2-.2V11h.2v.2Zm-167.1 0-.2.3-.1-.1h-.1l.2-.2c.3-.1.4-.1.2 0Zm8.8 0H27v-.1h.1Zm8 .1-.1.1V11.2l.1.1v.1Zm151.3-.1h-.2l.1-.1ZM67 11.3H67Zm95.3.2-.6.1-.1.2-.2.2V12l-.1-.2-.3.1c-.3.2-1.5.5-1.7.5l-.5.2-.3.2v.2l-.1.2c-.3 0-1.5 1.4-1.6 1.8 0 .2 0 .3-.2.4l-.2.2v1.2l.2.3.3.4.1-.2.1-.1v.3l-.1.3.5.2c.6.2.6.3 0 .9l-1.6 1.9-.4.9-.4.6v.2l.2.3v.1h-.5l-.3.8-.4.9v.3l-.2.8-.2.5h.1l.1.2.2-.1.1-.1-.2-.1-.1-.1h.7v.2l.1.2v-.1h-.2l-.4.2-.3.2v.3l-.1.3.1.1.1.3.3.8.4.8.6.6 1.3 1s.2 0 .3.2l.2.2.5.2 1 .2h1l.5-.2-.1-.2H161.9v-.4h.2l.8-.2h.5v-.2l.4-.5.3-.4v-.2l-.1-.2h.1l.1.2.2-.3c.3-.3.7-1.2.9-1.8l.1-.4v-.4l-.3-.6-.2-.2-.7-.2a5 5 0 0 0-1.1-.2h-.5.1l.4-.6.2-.4V24l-.2-.2h.8v-.2l.1-.2v-.1l-.1-.2v.1l.2.1.1-.1.2-.2v-.6h.2c.2-.1.6-.8.6-1v-.2c.2 0 .8-1 1-1.3v-.3l1-1.8c0-.1 0-.5.2-.9l.2-.7.1-.3.1-.3c-.1 0-.2 0-.2-.2l.1-.2.1-1.1v-.7l-.2-.3a4 4 0 0 0-2-1.3l-.9-.3-.1-.2-.4.1-.4.2v-.2h-1.4Zm-131.7 0h-.1Zm60.7.1h.1c-.1.2-.2.2-.3.2h-.1v-.4.2l.2.1Zm104 0v.2l-.2-.1.1-.1c.1-.2.2-.2.2 0Zm-166.1.2h-.1v-.3.1l.1.1Zm72.3 0-.2.1h-.2v-.1l.3-.2h.1v.1Zm61.8-.2h-.1Zm.2 0Zm1 .2v-.3.1l.1.1Zm10.3-.2h-.1Zm-147.6.2h-.1Zm4 0h-.1.1Zm3.8 0v.2l-.2-.2h.2Zm10.5 0-.3.1a3 3 0 0 0-.6.2l-.3.1-.3.6-.4.6c-.1 0-.8 1.1-1 1.7l-.4.9-.2.4v.2l.1.3h-.4v.3a30.3 30.3 0 0 0-.2 1.2v.7l.2.4.3.3.3.2h.2l.2.3h.7l.8.1-.1-.2-.1-.2h.1l.1.2v.2l.5-.1.6-.2-.8.9-.3.4v.2l-.1-.1-.2-.2-.3.2a7 7 0 0 0-.6.5l-.5.3-.5.3-.4.4v.2h-.2l-.2.1-.5.6-.5.5v.2l.1.1c-.6 0-1 3.8-.6 4.3l.1.5v.4l.2.1.1.2h.7l-.2.1-.1.1.2.3c.3.3 1 .7 1.5.8h.3l.3-.2.3-.2h.4l.4-.2-.1-.1v-.1h.4v-.2H44v-.2h.5l.2-.7.2-.6V29l.3-.1c.3.2.5.2 1 .3h.4l.4.3c.3.1.5.3.5.4l.1.2h.4v.2l.2.2s.2 0 .9.6l.2.3.8.1 1.5.2h.7l1-.2 1-.2.3-.3.1-.1.6-.3.5-.4V29.8h.2l.2.1.2-.1V29h.4V29l.1-.3.4-.8.2-.6v-1.4l-.1-1.5-.4-.2-.2-.2.2.1.3.1-.3-.3-.3-.3-.5-.2-.5-.1h-.3a7 7 0 0 0-1.6 1.9l-.4.5h-.2l-.2.1-.6-.2-.6-.4-1-.7h-.3.1l.3-.2h.3l.3-.2.6-.5c.2 0 .5-.3.7-.5l1-.7c.7-.4 1-.6 1-.8v-.2h.4l.9-.6.9-.7.3-.5c.3-.5.5-.7 1-.8h.4v-.4h.5v-.4l.3-.4.1-.2V17h.2l.2-.6V14.6l-.3-.4-.2-.3v-.7h-.2l-.2-.4v-.2l-.6-.2-.4-.2h-1l-1-.2.2.2v.2l-.2.1H56l.1-.1.1-.2h-.2l-.6.2-.5.1-.2-.2-.2-.2h-.9v.5h-.1l-.2.1v-.3l.1-.3H53l-.3.1a14.5 14.5 0 0 1-5-.2l-.1-.2h-1l-1-.1Zm54 .1v.1V11.7l.1.1v.1Zm54-.1ZM46 12h-.1Zm38.4.2.2.3v.2h-.2l-.2.1-.2-.2-.2-.2.1-.2c.2-.3.2-.3.5 0Zm96.5-.2h.1Zm12.4 0h-.1.1Zm-29.8.9h-.4l.1-.1v-.2l-.3-.3V12l.3.4.3.5Zm0-.7h-.2l-.1-.1H163.4Zm.4 0h-.2l.1-.1Zm12.9 0h-.1V12Zm-151 0Zm4.6.1H30h.3-.1Zm23.4 0Zm20.7 0Zm91 0H165h.4-.1Zm-108.8.1h-.1.1Zm.8.1v.1V12.3l.1.2Zm106.2.2-.1-.2-.1-.2.1.1c.1.1.2.2.1.3Zm2.8-.3h-.1.1Zm21.3 0v.1h-.1l-.1-.2H187.8v.1Zm-148.3.1h-.1.1Zm113.1 0-.1.2-.1-.1a.1.1 0 0 1 .2 0Zm10 0-.1.1h-.1v-.1h.3-.1Zm32.2 0Zm-129.6.2h-.2l.1-.1Zm26.5 0v-.1Zm39.5.1v-.3.1l.1.1v.1Zm22.4-.1v-.1Zm6 0h-.2l.1-.1Zm1 0h-.1v-.1Zm6 0-.2.1-.1-.2h.4Zm8.5 0h-.1v-.1h.1Zm1 0h-.5.6-.2Zm18.1 0h-.1.1Zm-184.5 0v.1h-.1Zm30 0-.1.1Zm10 .1h-.2H49.7Zm15.8 0Zm.7 0H66Zm100.8 0Zm-102 .1h-.2.1Zm7.6 0-.1.2h.6-.7V13l.2-.2v.2Zm.3 0h-.1Zm3 0h-.1.1Zm27.4 0Zm55.8 0h-.2.2Zm3.6 0Zm14.8 0h-.1.1Zm17 0ZM27.4 13v.1-.1Zm-19.5.2h-.1l-.1.2V13h.2Zm32 0h-.1V13Zm15.3 0H55Zm29.6.1V13l.1.1v.1Zm78-.1V13Zm1.7 0h-.1V13h.1Zm-73 0h-.2.2Zm13.5 0h-.1Zm66.5 0-.2.3-.2.1v-.2c.1-.1.4-.3.4-.1ZM12 13.5H12h.1Zm45.6 0Zm.8 0h-.1.1Zm46.9 0h-.1Zm44.3 0Zm39.1 0h-.1.1Zm5.3 0h-.1.1ZM13 13.5v.1h-.1.1Zm19.7 0v.1h-.1v-.1h.1Zm31.5 0v.1H64v-.1Zm19.7 0v.1h-.1v-.1h.1Zm74.4 0Zm5.7.2-.4.1h-.3l.3-.1.2-.2h.1l.1.1v.1Zm-132 0v-.1Zm141.2.3-.2.3V14l-.1-.1v-.2l.1-.2.1.1.2.1-.1.2Zm2.7-.3h-.1.1Zm-85.2.1-.1.1-.2-.2h.4l-.1.1Zm15.4 0Zm-98 .1h-.2.1Zm20 0v.2H28c-.3.2-.4 0-.3-.1.1-.2.3-.2.4 0Zm77.4 0h-.1.1Zm60.2 0h-.2.2Zm.5 0h-.2.1ZM38.8 14v.1h-.1Zm27.7 0h-.2.2Zm103.6.1-.1.1h-.2a.1.1 0 0 1 .3 0Zm-157.4 0Zm5 0h-.2.1Zm148 0-.2.2v-.1h-.1H165.7Zm9 .3v.1h-.2l-.1-.2.1-.2.2.1.1.2ZM45 14.4h-.2.1Zm25.5 0h-.1.1Zm-42.1.2h-.1l-.2-.1h.4-.1Zm128.9.1v.2l-.2-.2h.2Zm15.7 0h-.1.1Zm19.8 0Zm-175 .1h-.1.1Zm52.2 0h-.1.1Zm114.8 0h-.2.2Zm-155.6.1H29Zm4 0H33h.1Zm5.3 0h-.1.1Zm113.6 0Zm34.2 0h-.2.1Zm-165.5.2h-.2V15H20.8h-.1Zm146.6 0v.1h-.2V15l.2.1Zm-107.8 0v.1Zm106.7 0c0 .1 0 .2-.2.2h-.2V15h.4Zm-114.9.3v.2h-.1l-.1-.2v-.2h.2v.2Zm110.2 0h-.1l-.2-.2h.4l-.1.1Zm-86.3 0v.1-.1Zm72.4 0h-.1.1Zm-109.2.2h-.1v-.1h.1Zm127.3.1h-.1v-.2l.1.1v.1ZM49 15.7h-.1.1Zm108.6 0h-.1Zm34.4 0h-.1Zm-153 .1h-.2.1Zm50.3 0v.1H89v-.1H89.3h-.1Zm74.2 0h-.1.1ZM13.1 16v.1H13h.1ZM44 16l-.1.1v-.1Zm41.8 0-.1.1h-.1l-.1-.1H85.8Zm47.3 0-.1.1v-.1Zm.5 0h-.2.2Zm32.5 0v.1h-.1l-.1-.1H166.2Zm26.5 0v.1h-.1v-.1Zm-166.8.2h-.2.2Zm137.7 0h-.1V16h.1Zm2 0v.2-.1Zm29.8.2v.1V16.1l.1.2Zm-185.5 0Zm10.7 0h-.1Zm25.5 0h-.1Zm3.1.2 1.8.3-.2.4-.2.3h-.2l-.2-.1h.1V17.8H50v-.2h-.2l-.5.3-.4.3V18.4h-.2l-.2-.1-.4.2-.9.5-.8.6-.4.2h.9l-.2.2-.2.1-.3-.1-.3-.1.3-.4a94 94 0 0 1 1.7-2.4l.5-.9.2.2v.1h.5Zm116.8-.2-.1.1-.2-.1h.4-.1Zm-113.4.2h-.2v-.1H52.6Zm117 .1-.2.2v-.4l.2.2Zm-148.8 0h-.1.1Zm34.3 0h-.2.1Zm88.7 0h-.1Zm14 .1-.1.1V16.5l.1.1v.1Zm9.5-.1h-.1Zm2.6 0Zm28.3 0ZM32 16.7v.1h-.2v-.2H32v.1Zm34.4 0Zm4 .1v.1V16.6l.1.2Zm109.4-.1h-.1.1ZM16.9 17h-.1V16.8v.1h.2l-.1.2Zm35.6 0V16.8v.1h.1v.2Zm9.3-.2h-.1Zm-18.3.3v-.3.1l.1.1v.1Zm25-.1h-.1v-.1Zm2.6 0v.1h.6l.2.4.1.4h.2v-.2l-.1.4-.2.4h-.5l-.7.1V19.3l-.1-.2-.3-.2c-.7 0-1.4-.2-1.4-.3h-1.4l-.2-.2.2-.3.3-.6.2-.2h1.7l.6-.2h.4c.1-.2.3-.1.4 0Zm14.8 0V17Zm38.9 0h-.2v.2l.2.1-.2-.1-.3-.2-.3.4-.4.4-.1.4v.4h-.2l-.3.3v.1l.2-.1v.1l-.1.2h-.2l.2.5.3.6.1.3c0 .3.7.8 1.2 1h.4l.1-.2V21.7h.3l.3-.1.3-.2h.3V21v.1l.2.1v-.1l.1-.2c.3 0 .4 0 .8-.3l.4-.4v-.5l.1-.5-.4-.9c-.4-.7-.5-.9-.6-.7v-.2l-.5-.3-.6-.2h-1.1Zm48.6 0h-.1v-.1Zm10 0h-.1v-.1Zm-171 .1v.2h-.2l.1-.2h.1Zm9.2 0h-.1Zm3.2.1-.2.2h-.1V17h.1l.2.2Zm44.7-.1h-.1Zm11.9 0h-.2.1Zm76.4 0h-.2H157.8h-.1Zm-127.4.3V17.1v.2Zm5.9-.2H36h.2Zm98.5.2V17.1v.2Zm-123.2 0h-.2v-.1h.3-.1Zm18 0c.1.2.2.8 0 1v.1h.2l-.2.3-.2.3.2.1.2.2h-.2l-.3.1v.7l-.2.3-.2.2v.2l.2.2-.3.3a5 5 0 0 0-.5.9c-.2.6-1 1.5-1.5 1.8l-.4.2h-.9l-.3-.3-.3-.2v-2.3l.2-.3.4-1.2.3-.8v-.8h.1l.1.2.1-.3V18l.2.2v.1l.5-.3.7-.5.3-.2h1.6l.1.2Zm21.6 0H51v-.1Zm123.4 0v.1H174.3v-.2H174.6ZM25 17.4v.1h-.1.1Zm132.6 0v.1h-.1v-.1Zm-125.1.2h-.1Zm26.6 0H59h.1Zm15.7 0h-.1.1Zm93.9 0-.1.2s-.2 0-.2-.2H168.6Zm12.6.1v.1V17.5v.2Zm15.3 0v.1V17.5v.2Zm-144.7 0v.2l-.2-.1v-.2l.2.2Zm129.7.1h-.1ZM12 18h-.1v-.1Zm8.5.1v-.2l.1.1v.1Zm38.5 0h-.1v-.2l.1.1v.1Zm2.3-.1h-.1v-.1Zm105.1 0h-.1v-.1h.1Zm18.4 0h-.2.2Zm14.6 0h-.1.1ZM49.5 18v.2l-.1-.1h.1Zm35.3 0h-.1Zm17 0-.1.2-.1-.1h.1Zm69.7.2h-.5V18h.5v.2Zm-36.3 0-.1.1-.1.1v-.2h.2Zm23.9.2h-.1V18.1l.1.2Zm-116 0 .1.3h-.4v-.2l.1-.2c.1 0 .2 0 .2.2Zm.5 0h-.1Zm-7 0-.2.1h.1Zm41 .1v.2H77v-.2l.3-.1h.2v.1Zm65.7 0h-.1v-.1h.1Zm42 0h-.1v-.1Zm-1.8 0h-.1ZM20 18.9v.1l-.2-.1v-.1h.2Zm152 0h-.1v-.1h.1Zm-124.3 0h-.2.2Zm1 0-.1.1Zm7.7.1v.1l-.1-.2.1.1Zm14.6 0Zm54.6 0Zm46.7 0h-.1v-.1Zm-126.2 0Zm26.5 0h-.2.2Zm7.4.2-.1.1V19l.2.1-.1.1Zm91 0h-.1.1Zm-125 .1H46h.1Zm88.9 0h-.2.2Zm15.1 0v.2l-.2-.1v-.1h.2Zm12.1.2V19.2v.1h.1v.2Zm-146.7 0h-.1v-.1h.1Zm154.5 0h-.2.2Zm-151.7 0v.1h-.1.1Zm34.1 0v.1h-.1.1Zm97.2 0v.1h-.1.1Zm8 0-.1.2h-.2l-.1-.2h.4Zm.4 0h-.2.2Zm31.8.4h-.1V19.5l.2.2h-.1Zm-174.4 0v-.1Zm27.6 0h-.1v-.1Zm20 0h-.2v-.1h.1Zm-8.4.1v.1h-.2v-.2l.2.1Zm129.3 0h-.2.2Zm-159.1 0h-.2.2Zm21 0h-.2.1Zm104 0h-.2.1Zm16 0v.1h-.1.1Zm-79.8.2Zm57.6 0h-.2.2Zm1.3 0Zm12.4 0v.2h-.4v-.1l.2-.2.2.2ZM54 20.4v.1l-.1-.1v-.1l.1.1Zm71.1 0h-.1v-.1h.1Zm2.4 0h-.1v-.1h.1Zm46.9 0h-.1v-.1Zm2.2 0c0 .1 0 .2-.2.2h-.1V20.3h.4v.1Zm7.8 0Zm-130.7 0v.1h-.1Zm6.6 0-.1.1Zm20 0-.1.1Zm81 0-.1.1Zm-126.6.2Zm27.5 0H62h.1Zm61.8 0h-.2.2Zm10.8.1v.1V20.4v.2Zm29.6 0h-.1.1Zm18 0-.2.1-.1-.1H182.4Zm12.7 0v.2l-.2-.1v-.1h.2Zm4 0Zm-178.9.1v.1H20h.1Zm.6 0v.1Zm56.3 0h-.2.1Zm24.2.2v-.3.2Zm95.3-.2ZM45.4 21v.2l-.1-.2h.1Zm29.7 0h-.2.2Zm59.4 0h-.1Zm40.5 0h-.1.1Zm.4.1-.1.1V20.8l.1.1v.1ZM30.2 21Zm127.4 0h-.1Zm18.6.2v.2-.5.3Zm-156.8 0Zm25.7 0H45h.1Zm26 0V21Zm-40.8 0v.1h-.1.1Zm18.8.2V21 21.4Zm27-.2-.1.1v-.1Zm49.3.2V21v.1l.1.1v.1Zm38.9 0h-.2v-.2l.2.1Zm19-.2h-.2.1Zm-96.5.2Zm105.4 0h-.1.1Zm-36.3.2Zm41 .2v.1h-.3c-.3 0-.5-.1-.4-.3H196.8v.2Zm-185 0h-.1v-.1Zm18.8 0h-.1v-.1Zm13.1 0v-.1Zm3.3 0-.2.2h-.2v-.2h.4Zm24 0v.1Zm-38.5.2h-.1Zm20.8.1v.2h-.2V22h.2v.2Zm22.7-.1-.2.1-.1.1v-.1c.2-.2.3-.2.3-.1Zm95.8.2V22l.1.2Zm3.5-.2h-.1.1Zm-144.7.1h-.1Zm115.4 0h-.1Zm-102.3.2Zm18.7 0v-.1Zm38 0h-.2.2Zm-91.6.1h-.4.5Zm21.5 0Zm124.5 0v.2h.1V22.2v.1Zm27.2 0h-.1.1Zm-95.4.1Zm100.3.2v.2-.3l-.1-.2v.3Zm-168.7 0h-.1v-.1h.1Zm12.6 0Zm69.6 0h-.2.2Zm81 0a.1.1 0 1 1-.2 0 .1.1 0 0 1 .3 0Zm-113.2.2v.1V22.7l.1.1v.1Zm3.8-.1Zm3 0Zm-57.2 0h-.1.1Zm5.3 0v.2-.2Zm51.6 0h-.1.1Zm-60.4.3v.1l-.2-.1V23h.2Zm38.2 0h-.1V23ZM74 23Zm97.9 0h-.2.2ZM22 23.4H22h.1Zm8.2 0h-.1.1Zm4.6 0c0 .2-.2.3-.3.2h-.1v-.1c.1-.2.4-.2.4 0Zm97.7 0h-.2.2Zm9.3 0h-.1.1Zm14.2 0h-.2.2Zm37.8 0h-.1Zm-185 .1h-.2.1Zm46.3 0H55h.1Zm44.9 0h-.1Zm41 0h-.2.1Zm17.4 0h-.1Zm-72.4.3v-.3.1l.1.1v.1Zm59.7-.2h-.1.1Zm45.7 0v.2l-.1-.1-.1-.1H191.6Zm-174.8.2h-.1Zm2.5 0v.2s-.2 0-.2-.2h.2Zm87.7 0h-.1.1Zm47.7.1v.1V23.7l.1.1v.1Zm1.5-.1h-.2.2Zm39.3 0h-.2.2Zm-184.5.1h-.1Zm30.3 0H41Zm120.6 0v.1h-.1l-.1-.2H161.9v.1Zm26 0h-.1Zm-31.4.1Zm7 0h.1-.1ZM45 24.3H44.8V24h.4l-.1.2Zm60.9 0v.2h-.6v-.2l.1-.2h.2l.3.2Zm.6-.1V24Zm90.4.1h-.1V24v.1l.2.1-.1.1Zm-64 0-.1.2-.2-.2h.2Zm7.8 0h-.2.2Zm-132.3.2v.1l-.2-.1v-.2l.2.2Zm90.4 0v-.2.1Zm87 0h-.1ZM37 24.4Zm1 0-.1.1v-.1Zm68.3 0h-.1.1Zm2 .2h-.1.1Zm40 .1h-.2v-.2h.1l.1.1v.1ZM16 24.8Zm5.7 0-.1.1-.2.1.1-.1c.1-.2.2-.2.2-.1Zm20.8.1v.1V24.7l.1.1v.1Zm6.5 0-.1.1V24.7l.2.1-.1.1Zm24.8-.1h-.1Zm31.4.1v.1V24.7l.1.1v.1Zm-88.6.3V25v.1l.1.1Zm24.2 0h-.1V25v.1l.1.1Zm38.1-.1v.1l-.2-.1-.1-.1h.1l.2.1Zm7.6 0v.2-.4.1l.1.1Zm12.9 0v.2-.4.2Zm-73.4 0v.1h-.1.1Zm52.4.2v.1V25.1l.1.1v.1Zm9.7-.1h-.2.2Zm61.6 0Zm-129.5 0v.2-.2Zm85 0h-.2.1Zm49.3 0v.2-.1Zm-86.6.4V25.3v.1h.1v.2Zm6.9-.2h-.1.1Zm122.5 0h-.1Zm-125.5.1-.1.1v-.1Zm32.4 0v.1-.1Zm38.7.1-.1.1H143l.1.2.1.4h-.4l.2.2h-.2l-.3-.2-.3-.2v-.2l.1-.2.2.2.2.2v-.3l-.1-.2c.2-.2.2-.1.2 0Zm7 0v.2-.4.1l.1.1Zm40 0h-.2v-.1H190h-.1ZM33 25.6v.1Zm17.7 0v.1Zm124.4.1-.3.2h-.1v-.2h.5Zm-170.5.1h-.1Zm.2.1-.1.1V25.7l.2.2h-.1Zm3.8-.1h-.1.1Zm15 0h-.2.1Zm21.5 0H45h.1Zm26 .1-.2.2c-.1 0-.3-.2-.2-.3.2-.1.3 0 .3.1Zm33.4 0-.1.1V25.7l.2.2h-.1Zm-101 0h-.2.1Zm19.3 0h-.2.2Zm6.3 0H29Zm23.2 0h-.1.1Zm23 0Zm75.9 0h-.1Zm13.2 0Zm-127.7.2h-.1V26Zm16 0-.2-.1h.4-.1Zm97.7 0h-.1.1Zm11.3.1h-.2l-.2-.2h.3l.1.2ZM59 26.2h-.2.2Zm13.6 0h-.2H72.7Zm69 0h-.2H141.7Zm40.1 0h-.1.1Zm16.3 0h-.1.1Zm-193.7.1h-.1Zm82.5 0h-.1.1Zm42.3 0Zm1.6 0h-.2.2Zm-83 .1h-.2.1Zm11.2 0Zm42.9 0v.1h-.2v-.1H101.9h-.1Zm84.8 0Zm-151.1.2h-.2l-.1-.1H35.5Zm39.4 0h-.1v-.1h.1Zm117 0h-.2.1Zm-175 0h-.1.1Zm13.4 0v.1h-.1.1Zm111.4 0-.1.1Zm12.5 0v.1h-.2.1Zm-149.4.2-.1.1-.2.1V27s0-.2.2-.2v.1Zm29.4 0v.1H34v-.2H34.2l-.1.1Zm43.8 0h-.1Zm21.2 0H99Zm3.1.2V26.7v.2Zm25-.2h-.2.1Zm15 0h-.1Zm26.2.3v.3-.1l.2-.2v.1l.1.1v.2c-.2.2-.3.2-.5 0l-.2-.2V27l.2-.3h.1v.4Zm8.7-.1v.3h-.5V27h.4l-.1-.1-.1-.2H177.2v.3Zm-171 .1.1.2h-.1L6 27v-.2c.2 0 .2.1.3.2Zm29.2-.2v.1h-.2l.1-.1Zm27.1 0v.1-.1Zm3.2 0v.1h-.1v-.1h.1Zm23.6 0v.1Zm21 0v.1h-.1v-.1h.1Zm1.5 0v.1h.2l-.1-.1Zm52.2 0h-.1.1Zm4.8 0v.1h-.1v-.1h.1Zm-94.9.2h-.1V27h.1Zm55 0h-.1Zm13 0a.1.1 0 1 1-.2 0 .1.1 0 0 1 .2 0Zm14.2.2v.2h-.4v-.4c.2-.1.4 0 .4.2Zm25.5-.2h-.2l-.1-.1H181.6ZM3 27.2v.1H2.8L3 27v.1Zm63.1 0h-.1.1Zm34 0-.1.2a.1.1 0 0 1 0-.3l.1.2Zm.7.1v.1V27.1l.1.2Zm50.4 0h-.1l-.1-.2H151.4v.1Zm31.7-.1h-.1Zm-139 .1-.2.1-.1-.1H44Zm55.2 0H99Zm56.6 0h.1Zm26.2 0h-.2.1Zm-136.4.1v.1h-.1v-.1h.1Zm20.3 0v.2l-.2.1v-.1c0-.3 0-.3.2-.1Zm36.5 0Zm62.5.1v.1l-.2-.1v-.1l.2.1Zm-139.6 0-.1.1Zm14.9 0v.1H40h.2Zm48.6 0v.1h-.1.1Zm12 0-.2.1v-.1h.1Zm49.8 0v.1h-.1v-.1h.1Zm-71 .2Zm31.9 0h-.2.2Zm44.9.1v.1V27.6v.2ZM39.9 28h-.1V27.8v.1h.2l-.1.2Zm26.4.2H66v-.3l.1-.2.1.2v.3Zm.2-.4h-.1Zm102.5 0h-.2.2ZM40.3 28v.1h-.1.1Zm7.3 0h-.1.1Zm18.2 0-.2.1-.3.1V28h.5Zm46.3 0h-.1Zm13.8 0-.1.1v-.1Zm38.6 0v.1-.1Zm26 0h-.2.1Zm1.3 0-.1.2V28l-.2-.1h.4-.1Zm-1.7.2h-.2.2ZM30.3 28l-.1.2-.2.1.1-.1c.1-.2.2-.2.2-.1Zm35.4.2-.1.1V28.1l.1.2Zm105.2-.1h-.2.2Zm-150.4.1-.2.2-.2.2v-.2c.1-.2.4-.3.4-.2Zm53.5.2v.2-.5V28.5Zm68.7-.2h-.2.1Zm29.6 0v.1h-.1l-.1-.1H172.4ZM32 28.5h-.2v-.1h.2Zm24.6 0v-.1Zm56.1 0h-.1.1Zm44 0c.1 0 .1.1 0 .1-.1-.2-.1-.2 0-.2v.1Zm30.2.1h-.1v-.3.1l.1.1v.1Zm-167.5 0H19h.5Zm10.8 0H30Zm155 0Zm-136.8.1h-.1Zm78.6 0h-.1.1Zm30 0Zm13 0h-.2.2Zm20 0h-.1Zm2.6 0h-.1Zm-190 .1Zm122.1 0h-.1.1Zm-51.2.2-.1.1h-.1l.2-.2v.1Zm95.3 0v.3l-.1-.2-.1-.2h.2v.2Zm12.6 0h-.1l-.1-.1H181.5ZM56.2 29h-.1.1Zm31 .1H86.8 87.2Zm85 0-.2.2h-.2l.1-.2h.2Zm4.2.1h-.1.1Zm17.8.2v.1l-.2-.1v-.1l.2.1Zm-69.4 0v.1-.1Zm17 .1a.1.1 0 0 1-.3 0l.2-.1v.1Zm21.3.1v-.2.2Zm29.2-.1Zm-186.5 0v.2-.2Zm24.6 0v.2-.2Zm20.4.1v.2l-.2-.1-.2-.1h.4Zm-6.5.1Zm35 0Zm84 .2V29.6l.1.2Zm5.5-.2h-.1.1Zm2 0-.2.2h-.2l.1-.1c.1-.1.2-.2.2 0Zm9.2 0h-.1Zm6.6 0ZM9 29.8h-.2.2Zm115 0h-.2.2Zm39.1.2V29.8v.2Zm8.1-.2h-.1.1Zm-116 .2H55v-.1h.3-.1Zm.3 0h-.2l.1-.1Zm10.8.1-.2.1V30c.2-.2.2-.1.2.1Zm74.9-.1h-.2.2Zm22.4 0Zm7.3.2v.1-.4.3ZM44 30Zm74.1 0h-.1.1Zm44.1 0-.3.2h-.1l.2-.1.3-.2h.1l-.2.2Zm31.6 0v.2l-.2-.1V30l.2.2Zm-191.5.2v.1l-.3-.1v-.1h.3Zm157.6 0h.2l-.1.1-.4-.1-.2-.1h.5Zm15.2 0h-.3l-.1-.1h.5-.1Zm17.5 0v.2h-.4V30.2h.4v.1ZM31 30.3v.2l-.1-.1-.1-.1H31Zm36.2 0v.1-.1Zm48.8 0h-.1.1Zm68.4 0v.1h-.2l.1-.1ZM12 30.5h-.1Zm58.4 0Zm126.2.1-.2.2h-.2l.2-.2.2-.2v.2Zm.4-.1h-.2.3-.1Zm-111.6.1h-.1.1Zm95.3 0 .1.2h.2l-.1-.1-.1-.2v.2ZM4 30.8h-.1.1Zm2.8.2-.1.2v-.5.1c.1 0 .1.1 0 .2Zm17.6-.2h-.2.2Zm121 0h-.2.1Zm16 0-.2.1-.1-.1H161.4Zm13.4 0h-.2.1Zm7.2 0h-.2.1ZM68 31v-.1Zm90.6 0h-.1v-.1Zm.3.1v.2l-.1-.2h.1Zm3.2 0-.2.2h.2s.2 0 .2-.2c.1-.1 0-.1-.2 0Zm-78.2.3h-.1V31l.1.2Zm73.7-.2h-.1Zm.2 0Zm-133.6.1ZM11 32h-.1Zm-9.3.1h-.1.1Zm4.7.2h-.1V32l.1.2Zm-1 .6H5h.4-.1Z" clip-rule="evenodd"/>
</svg>
